<svg viewBox="0 0 256 256" xmlns="http://www.w3.org/2000/svg" xml:space="preserve" style="fill-rule:evenodd;clip-rule:evenodd;stroke-linejoin:round;stroke-miterlimit:2">
  <desc>Traced by Dogo314</desc>
  <g transform="translate(-28.444 589.487)scale(.98084)">
    <path style="fill:none" d="M29-601h261v261H29z"/>
    <clipPath id="a">
      <path d="M29-601h261v261H29z"/>
    </clipPath>
    <g clip-path="url(#a)">
      <path style="fill:#363426" transform="translate(-252.39 -601)scale(1.01953)" d="M276 0h256v256H276z"/>
      <path d="M3798 148v8h-85l-13-24 13-24h85v8h13v32zm-177.625-26-3.375-6h82.568l-8.666 16 8.666 16H3617l3.375-6H3642v-6h-13v-8h13v-6zM3804 87l-4 13h-48l4-13zm0 90h-48l-4-13h48z" style="fill:#ffe" transform="rotate(-16 -169.797 12744.676)scale(1.01953)"/>
      <path d="M276 15V0h256v15zM518 .82H290v13.36h228zm-10 12.774h-32l32-1.875zM300 1.406h32l-32 1.875zm208 0v1.875l-32-1.875zM300 13.594v-1.875l32 1.875z" style="fill:#c9b269" transform="matrix(1.01953 0 0 17.4 -252.39 -601)"/>
    </g>
  </g>
</svg>
