<svg viewBox="0 0 256 256" xmlns="http://www.w3.org/2000/svg" xml:space="preserve" style="fill-rule:evenodd;clip-rule:evenodd;stroke-linejoin:round;stroke-miterlimit:2">
  <desc>Traced by Dogo314</desc>
  <g transform="translate(-276 -306)">
    <path style="fill:none" d="M276 306h256v256H276z"/>
    <clipPath id="a">
      <path d="M276 306h256v256H276z"/>
    </clipPath>
    <g clip-path="url(#a)">
      <path style="fill:#011419" transform="translate(0 306)" d="M276 0h256v256H276z"/>
      <path d="M3444 2769.042v.958h-4v4h-5.07a8 8 0 0 1-6.93 4h-28a8 8 0 0 1-8-8v-4c0-1.457.39-2.823 1.07-4H3380l-2-4h-6l-4 8h-28l-7-4h-4.219a1 1 0 0 1-.97-.757l-3.568-14.273a1 1 0 0 1 .727-1.213l2.481-.62a1 1 0 0 1 .949.263l.6.6 6.598-3.299a8 8 0 0 1 2.964-.821L3350 2741l6-4v-3h12v-4l8-4h16v8h4v-12h4v12h4v-4h12.131l4.619-8 6.928 4-4.619 8H3428v4h4v-8l16-8h4v12h-4v-8l-11 7v5h91v-4h24v24h4v-4h4v8l-8 8h-4v-4l-4-4h-16v-.36c-2.716 1.189-8.983 3.402-18 3.402-16 0-18-4-34-4v.958h-16v-.958c-4.479 0-5.823 1.791-7.167 3.583-1.656 2.208-3.312 4.417-8.833 4.417m84-9.697V2758h-52v.958c16 0 18 4 34 4 9.862 0 16.256-2.758 18-3.613m-68-.387V2758h-31v.062a8 8 0 0 1 5.93 3.938h5.07v4h4v.958c4.479 0 5.823-1.791 7.167-3.583 1.656-2.208 3.312-4.417 8.833-4.417m52-8.958h16v-4h-16zm-80-4h-4v4h4zm5 4h11v-4h-11zm15 0h56v-4h-56zm-96-.429V2747l-25 6v5l9 4h24l3-8h-3l-4-4-17.667 3.365a4.1 4.1 0 0 0-3.333 4.028v.607h-1v-.862a5 5 0 0 1 4.064-4.912z" style="fill:#53bcda" transform="translate(-3036 -2268)"/>
      <path d="m1782 2429-22-22v-22l18-18v-28l25 25v27l8-20 10 33-25 25v-15l7-7-11-11v-14l-21 21 11 11z" style="fill:#ffe" transform="translate(-1387 -1992)"/>
      <path d="M276 15V0h256v15zM518 .82H290v13.36h228z" style="fill:#5abeda" transform="matrix(1 0 0 17.06667 0 306)"/>
    </g>
  </g>
</svg>
