<svg viewBox="0 0 256 256" xmlns="http://www.w3.org/2000/svg" xml:space="preserve" style="fill-rule:evenodd;clip-rule:evenodd;stroke-linejoin:round;stroke-miterlimit:2">
  <desc>Traced by Dogo314</desc>
  <g transform="translate(-28.444 589.487)scale(.98084)">
    <path style="fill:none" d="M29-601h261v261H29z"/>
    <clipPath id="a">
      <path d="M29-601h261v261H29z"/>
    </clipPath>
    <g clip-path="url(#a)">
      <path style="fill:#363426" transform="translate(-252.39 -601)scale(1.01953)" d="M276 0h256v256H276z"/>
      <path d="M3184 64h-40l8-8h24zm-6 92h-28v-45l-14-10V72h56v29l-14 10zm14 8-8 8v12h-40v-12l-8-8zm6 28 10-10v-28l-8-12v-36l8-11V80h-8v-8h16v26l-8 11v30l8 11v36l-14 14h-76l-14-14v-36l8-11v-30l-8-11V72h16v8h-8v15l8 11v36l-8 12v28l10 10zm-62-86 10 7v43h-10zm56 0v50h-10v-43z" style="fill:#ffe" transform="translate(-3066.297 -601)scale(1.01953)"/>
      <path d="M276 15V0h256v15zM518 .82H290v13.36h228zm-10 12.774h-32l32-1.875zM300 1.406h32l-32 1.875zm208 0v1.875l-32-1.875zM300 13.594v-1.875l32 1.875z" style="fill:#c9b269" transform="matrix(1.01953 0 0 17.4 -252.39 -601)"/>
    </g>
  </g>
</svg>
