<svg viewBox="0 0 256 256" xmlns="http://www.w3.org/2000/svg" xml:space="preserve" style="fill-rule:evenodd;clip-rule:evenodd;stroke-linejoin:round;stroke-miterlimit:2">
  <desc>Traced by Dogo314</desc>
  <g transform="translate(-276 -306)">
    <path style="fill:none" d="M276 306h256v256H276z"/>
    <clipPath id="a">
      <path d="M276 306h256v256H276z"/>
    </clipPath>
    <g clip-path="url(#a)">
      <path style="fill:#011419;" transform="translate(0 306)" d="M276 0h256v256H276z"/>
      <path d="m-3.855 2381.913-7.071-4.368 8.485-5.241 22.627 13.976-8.485 5.241-7.071-4.367-15.556 9.608-8.486-5.241zm46.669-18.343-24.042 14.849-8.485-5.241 53.033-32.756c-2.594 7.133-4.243 13.102-20.506 23.148m-16.971-6.988-8.442 5.214c-13.68-8.996-15.284-14.671-17.721-21.374zm11.314 17.469 8.485-5.241 7.071 4.368-8.485 5.241zm29.698 7.862 15.557 9.608-8.486 5.241-15.556-9.608-7.071 4.367-8.485-5.241 22.627-13.976 8.485 5.241z" style="fill:#ffe" transform="matrix(1 0 0 1.61905 372.5 -3446.472)"/>
      <path d="M276 15V0h256v15zM518 .82H290v13.36h228z" style="fill:#5abeda" transform="matrix(1 0 0 17.06667 0 306)"/>
      <path d="m639 2203.463-2 .537-1 2 2 2v2h-3l-2-2v-2l-5 2-1 4-21 6-4-2-25.475 5.404a7 7 0 0 1-8.407-6.045l-1.812-15.706a3 3 0 0 1 2.293-3.265L583 2193l3-3 5-1 3-6 4-1-4-5 8-8 4 3h7v-1h-1v-2h7v2h-1v1h2l4.657.665a7.1 7.1 0 0 1 4.016 2.008L634 2180h6v-3h11l5.738-5.021a8 8 0 0 1 5.268-1.979h30.266a9 9 0 0 1 6.364 2.636L701 2175v3l5 3v1.197c0 .492-.278.942-.719 1.162L704 2184v2l-.987.265c.084.83.558 1.296.987 1.735h1c0-1 1-2 2-3v3h2v-3c1 1 2 2 2 3l1-3 3 1c0 1 .527 1.516 1 2h1c0-1 1-2 2-3v3h2v-3c1 1 2 2 2 3l1-3 3 1c0 1 .527 1.516 1 2h1c0-1 1-2 2-3v3h2v-3c1 1 2 2 2 3l1-3 3 1c0 1 .527 1.516 1 2h1c0-1 1-2 2-3v3h2v-3c1 1 2 2 2 3l1-3 3 1c0 1 .527 1.516 1 2h1c0-1 1-2 2-3v3h2v-3c1 1 2 2 2 3l1-3 3 1c0 1 .527 1.516 1 2h1c0-1 1-2 2-3v3h2v-3c1 1 2 2 2 3l1-3 3 1c0 1 .527 1.516 1 2h1c0-1 1-2 2-3v3h2v-3c1 1 2 2 2 3q.566 0 1.11.077l.292-.505 2.366-2.098 2.098 2.366a2.24 2.24 0 0 0-.294 1.489c.869-.388 2.162-.041 3.454.305l-2.598 1.5.483.837.044.076.473.819 2.598-1.5c-.366 1.366-.732 2.732-1.598 3.232l-.505.292.018.132.563.151 2.639 1.742-1.743 2.639c-.965-.259-1.6.117-2.19.448l-.259.966-.565-.151-.08.105.292.506c.5.866.134 2.232-.232 3.598l-1.5-2.598-.837.483-.076.044-.819.473 1.5 2.598c-1.366-.366-2.732-.732-3.232-1.598l-.292-.505a8 8 0 0 1-1.11.077l-1 3-3-1c0-1-.527-1.516-1-2h-1c0 1-1 2-2 3v-3h-2v3c-1-1-2-2-2-3l-1 3-3-1c0-1-.527-1.516-1-2h-1c0 1-1 2-2 3v-3h-2v3c-1-1-2-2-2-3l-1 3-3-1c0-1-.527-1.516-1-2h-1c0 1-1 2-2 3v-3h-2v3c-1-1-2-2-2-3l-1 3-3-1c0-1-.527-1.516-1-2h-1c0 1-1 2-2 3v-3h-2v3c-1-1-2-2-2-3l-1 3-3-1c0-1-.527-1.516-1-2h-1c0 1-1 2-2 3v-3h-2v3c-1-1-2-2-2-3l-1 3-3-1c0-1-.527-1.516-1-2h-1c0 1-1 2-2 3v-3h-2v3c-1-1-2-2-2-3l-1 3-3-1c0-1-.527-1.516-1-2h-1c0 1-1 2-2 3v-3h-2v3c-1-1-2-2-2-3l-1 3-3-1c0-1-.527-1.516-1-2h-1c0 1-1 2-2 3v-3h-2v3c-1-1-2-2-2-3l-1 3-3-1c0-1-.527-1.516-1-2h-1c0 1-1 2-2 3v-3h-2v3c-1-1-2-2-2-3l-1 3-3-1c0-1-.527-1.516-1-2h-1c0 1-1 2-2 3v-3h-2v3c-1-1-2-2-2-3l-1 3-3-1c0-1-.527-1.516-1-2h-1c0 1-1 2-2 3v-3h-2v3c-1-1-2-2-2-3l-1 3-3-1c0-1-.527-1.516-1-2h-1c0 1-1 2-2 3v-3h-2v3c-1-1-2-2-2-3zM661.262 2175v4l1.738 3h26v-4l-2-3z" style="fill:#62b9d2" transform="translate(-276 -1716)"/>
    </g>
  </g>
</svg>
