<svg viewBox="0 0 256 256" xmlns="http://www.w3.org/2000/svg" xml:space="preserve" style="fill-rule:evenodd;clip-rule:evenodd;stroke-linejoin:round;stroke-miterlimit:2">
  <desc>Traced by Dogo314</desc>
  <g transform="translate(-276 -306)">
    <path style="fill:none" d="M276 306h256v256H276z"/>
    <clipPath id="a">
      <path d="M276 306h256v256H276z"/>
    </clipPath>
    <g clip-path="url(#a)">
      <path style="fill:#011419;" transform="translate(0 306)" d="M276 0h256v256H276z"/>
      <path d="M388 1553.443V1541l17 17h19v24h32v-24h19l17-17v101l-16 16h-64v-67.357zm84-3.443h-64l-20-20v-16h104v16zm-24 8v16h-16v-16z" style="fill:#53bcda" transform="translate(0 -1164)"/>
      <path d="m1468 1554 8 24h12v-16l20 31v58l-20 31v-16h-12l-8 24h-16l-8-24h-12v16l-20-31v-58l20-31v16h12l8-24zm-20.347 87.789-2.545 2.545-5.09-5.091a2.073 2.073 0 0 0-2.927 0l-1.903 1.902a2.073 2.073 0 0 0 0 2.928l14.321 14.321a2.07 2.07 0 0 0 2.927 0l1.902-1.903a2.07 2.07 0 0 0 0-2.927l-4.4-4.401 2.585-2.585.174.171c.69.689 2.07 2.414 7.244 2.414 5.175 0 6.554-1.725 7.244-2.414l.174-.171 2.586 2.585-4.401 4.401a2.07 2.07 0 0 0 0 2.927l1.903 1.903a2.07 2.07 0 0 0 2.927 0l14.32-14.321a2.07 2.07 0 0 0 0-2.928l-1.902-1.902a2.07 2.07 0 0 0-2.927 0l-5.091 5.091-2.545-2.545 15.654-15.393v-20.008l-5.182-.001a1.38 1.38 0 0 1-1.379-1.413q.006-.24.007-.483c0-10.758-9.584-19.491-21.388-19.491s-21.387 8.733-21.387 19.491q0 .242.007.483a1.38 1.38 0 0 1-1.379 1.414H1432v20.008zm19.532-13.669a1.725 1.725 0 1 1 0 3.45 1.725 1.725 0 0 1 0-3.45m-7.244 4.14a1.725 1.725 0 1 1 0 3.45 1.725 1.725 0 0 1 0-3.45m0-8.279a1.726 1.726 0 0 1 0 3.45 1.725 1.725 0 0 1 0-3.45m-7.244 12.419a1.726 1.726 0 0 1 0 3.45 1.726 1.726 0 0 1 0-3.45m0-8.28a1.725 1.725 0 1 1 0 3.45 1.725 1.725 0 0 1 0-3.45m14.488 8.28a1.726 1.726 0 0 1 0 3.45 1.726 1.726 0 0 1 0-3.45m8.969-30.012a.69.69 0 0 1 .69.69v11.384l-6.554 6.554-9.314-5.865h-2.069l-9.314 5.865-6.554-6.554v-11.384a.69.69 0 0 1 .689-.69zm-16.213 34.151a1.726 1.726 0 0 1 0 3.45 1.725 1.725 0 0 1 0-3.45" style="fill:#ffe" transform="translate(-1104 -1164)"/>
      <path d="M276 15V0h256v15zM518 .82H290v13.36h228z" style="fill:#5abeda" transform="matrix(1 0 0 17.06667 0 306)"/>
    </g>
  </g>
</svg>
