<svg viewBox="0 0 256 256" xmlns="http://www.w3.org/2000/svg" xml:space="preserve" style="fill-rule:evenodd;clip-rule:evenodd;stroke-linejoin:round;stroke-miterlimit:2">
  <desc>Traced by Dogo314</desc>
  <g transform="translate(-276 -306)">
    <path style="fill:none" d="M276 306h256v256H276z"/>
    <clipPath id="a">
      <path d="M276 306h256v256H276z"/>
    </clipPath>
    <g clip-path="url(#a)">
      <path style="fill:#091901;" transform="translate(0 306)" d="M276 0h256v256H276z"/>
      <path d="M516 1148H292v-38.222L332 1092l36 16 36-16 36 16 36-16 40 17.778z" style="fill:#679452" transform="translate(0 -602)"/>
      <path style="fill:#ffe" transform="translate(-1104 -582)" d="M1440 972h40v20h-40z"/>
      <path style="fill:#ffe" transform="translate(-1104 -526)" d="M1440 972h40v20h-40z"/>
      <path style="fill:#ffe" transform="translate(-1056 -582)" d="M1440 972h40v20h-40z"/>
      <path style="fill:#ffe" transform="translate(-1056 -526)" d="M1440 972h40v20h-40z"/>
      <path style="fill:#ffe" transform="translate(-1008 -582)" d="M1440 972h40v20h-40z"/>
      <path style="fill:#ffe" transform="translate(-1008 -526)" d="M1440 972h40v20h-40z"/>
      <path style="fill:#ffe" transform="matrix(.4 0 0 1 -240 -554)" d="M1440 972h40v20h-40z"/>
      <path style="fill:#ffe" transform="translate(-1080 -554)" d="M1440 972h40v20h-40z"/>
      <path style="fill:#ffe" transform="translate(-1032 -554)" d="M1440 972h40v20h-40z"/>
      <path style="fill:#ffe" transform="matrix(.4 0 0 1 -120 -554)" d="M1440 972h40v20h-40z"/>
      <path d="M1440 977.64V972h40v10.084zm60 6.666V972h100v5.64l-80 8.888zm120-6.666V972h100v12.306l-20 2.222zm120 4.444V972h40v5.64z" style="fill:#ffe" transform="matrix(.4 0 0 1.6 -240 -1081.2)"/>
      <path d="M276 15V0h256v15zM518 .82H290v13.36h228z" style="fill:#689452" transform="matrix(1 0 0 17.06667 0 306)"/>
    </g>
  </g>
</svg>
