<svg viewBox="0 0 256 256" xmlns="http://www.w3.org/2000/svg" xml:space="preserve" style="fill-rule:evenodd;clip-rule:evenodd;stroke-linejoin:round;stroke-miterlimit:2">
  <desc>Traced by Dogo314</desc>
  <g transform="translate(-276 -306)">
    <path style="fill:none" d="M276 306h256v256H276z"/>
    <clipPath id="a">
      <path d="M276 306h256v256H276z"/>
    </clipPath>
    <g clip-path="url(#a)">
      <path style="fill:#091901;" transform="translate(0 306)" d="M276 0h256v256H276z"/>
      <path d="M516 1128H292v-18.222L332 1092l36 16 36-16 36 16 36-16 40 17.778z" style="fill:#679452" transform="translate(0 -582)"/>
      <path d="M388.623 1064H360v-12a4 4 0 0 1 4-4h8.677zm44.327-16H444a4 4 0 0 1 4 4v12h-29.246zM344 1088.579V1072h119v17.023l-23 10.222-36-16-36 16zm56-24.512L376 1040v-16l20-20v-24l20 24v16l8-8 16 16-32 36.067V1048l4-8-8-4v-16l-12 20 8 8z" style="fill:#ffe" transform="translate(0 -582)"/>
      <path d="M276 15V0h256v15zM518 .82H290v13.36h228z" style="fill:#689452" transform="matrix(1 0 0 17.06667 0 306)"/>
    </g>
  </g>
</svg>
