<svg viewBox="0 0 256 256" xmlns="http://www.w3.org/2000/svg" xml:space="preserve" style="fill-rule:evenodd;clip-rule:evenodd;stroke-linejoin:round;stroke-miterlimit:2">
  <desc>Traced by Dogo314</desc>
  <g transform="translate(-276 -306)">
    <path style="fill:none" d="M276 306h256v256H276z"/>
    <clipPath id="a">
      <path d="M276 306h256v256H276z"/>
    </clipPath>
    <g clip-path="url(#a)">
      <path style="fill:#011419;" transform="translate(0 306)" d="M276 0h256v256H276z"/>
      <path d="M4326.52 2489H4325v13h-5v4h-11v8.399a3.87 3.87 0 0 1-1.132 2.733l-.487.487a1.3 1.3 0 0 1-.919.381h-3.013q-.449 0-.887-.099l-17.234-3.917a3.002 3.002 0 0 1-1.802-4.633l5.941-8.581a3 3 0 0 0 .533-1.707v-.82a3 3 0 0 0-.879-2.122L4287 2494h-15c-4 0-6-4-9-8l-6 6v11h-2v12h-13c0-17-11-25-15-25h-6v-3l-4-5h-2v3h-10v-3h-26v3h-10v-3h-3l-2-2v-24l2-2h3v-3h10v3h26v-3h10v3h11v-18l2.684-.895c.205-.068.427-.068.632 0l2.417.806c.175.058.362.067.541.026l12.492-2.883a1 1 0 0 1 .467.004l11.305 2.827a1 1 0 0 0 .843-.171l3.2-2.4a1 1 0 0 1 .916-.148l2.187.729c.205.068.427.068.632 0l2.187-.729a1 1 0 0 1 .916.148l3.087 2.315c.303.227.708.264 1.047.095l2.802-1.402c.385-.192.85-.117 1.155.188l1.49 1.49v17h12v2h8v2h42v-2h3v-1a3.001 3.001 0 0 1 6 0v1h2v-1a3.001 3.001 0 0 1 6 0v1h2v-1a3.001 3.001 0 0 1 6 0v1h8v26h-6l-2 2h-20v4h-4v2h-5.52c.332 2.09.52 4.473.52 7 0 5.215-.8 9.812-2.013 12.5 1.213.538 2.013 1.457 2.013 2.5 0 1.656-2.016 3-4.5 3s-4.5-1.344-4.5-3c0-1.043.8-1.962 2.013-2.5-1.213-2.688-2.013-7.285-2.013-12.5 0-2.527.188-4.91.52-7m-74.52 14a.997.997 0 0 0-1 1v7a.997.997 0 0 0 1 1 .997.997 0 0 0 1-1v-7a.997.997 0 0 0-1-1m0-11a.997.997 0 0 0-1 1v7a.997.997 0 0 0 1 1 .997.997 0 0 0 1-1v-7a.997.997 0 0 0-1-1m60 2h-6c-1 2-1 3 0 5h5a.997.997 0 0 0 1-1zm-8 20a1 1 0 0 0 1-1v-10a.997.997 0 0 0-1-1h-3.446a1 1 0 0 0-.848.47l-4.554 7.287a1 1 0 0 0-.152.53v.992a1 1 0 0 0 .684.949l5.162 1.721a1 1 0 0 0 .316.051z" style="fill:#53bcda" transform="translate(-3864 -1992)"/>
      <path d="M4284.473 2382.75H4201.5v-7.5h82.973c1.667-6.467 7.543-11.25 14.527-11.25 8.279 0 15 6.721 15 15s-6.721 15-15 15c-6.984 0-12.86-4.783-14.527-11.25m18.277-41.25v15h-7.5v-15zm25.418 13.635-10.606 10.607-5.304-5.304 10.607-10.606zm8.332 27.615h-15v-7.5h15zm-13.635 25.418-10.607-10.606 5.304-5.304 10.606 10.607zm-27.615 8.332v-15h7.5v15zm-25.418-13.635 10.606-10.607 5.304 5.304-10.607 10.606zm5.303-53.033 10.607 10.606-5.304 5.304-10.606-10.607z" style="fill:#ffe" transform="translate(-4149.6 -2151.6)scale(1.06667)"/>
      <path d="M276 15V0h256v15zM518 .82H290v13.36h228z" style="fill:#5abeda" transform="matrix(1 0 0 17.06667 0 306)"/>
    </g>
  </g>
</svg>
