<svg viewBox="0 0 256 256" xmlns="http://www.w3.org/2000/svg" xml:space="preserve" style="fill-rule:evenodd;clip-rule:evenodd;stroke-linejoin:round;stroke-miterlimit:2">
  <desc>Traced by Dogo314</desc>
  <g transform="translate(-276 -306)">
    <path style="fill:none" d="M276 306h256v256H276z"/>
    <clipPath id="a">
      <path d="M276 306h256v256H276z"/>
    </clipPath>
    <g clip-path="url(#a)">
      <path style="fill:#011419;" transform="translate(0 306)" d="M276 0h256v256H276z"/>
      <path d="M308 2453.998a2 2 0 0 1 1.998-1.998H314c1.061 0 2.078.421 2.828 1.172A4 4 0 0 1 318 2456v1l27-4h32v-2h2l1 2h1v-2h2l1 2h1v-2h2l1 2h1v-2h2l1 2h1v-2h2l1 2h1v-2h2l1 2 1-2h6l1 2h6l6 3h88v4h-4v1h2v5h2v5h-96v11h-5v28h-20v-30h-10.622a5 5 0 0 0-4.957 4.339l-1.19 8.925a2 2 0 0 1-1.982 1.736h-4.491a4.75 4.75 0 0 1-3.364-1.394 4.75 4.75 0 0 1-1.394-3.364V2490l5-14v-.394a5.606 5.606 0 0 0-5.606-5.606H321v3l.762.381a2.24 2.24 0 0 1 1.238 2.003v.026a3.59 3.59 0 0 1-3.59 3.59h-1.993a9.1 9.1 0 0 1-4.515-1.199L308 2475a5 5 0 0 1-5 5h-1a2 2 0 0 1-2-2v-22c0-1.061.421-2.078 1.172-2.828A4 4 0 0 1 304 2452h2a2 2 0 0 1 2 1.998M376 2473a2 2 0 0 0-2 2v1a2 2 0 0 0 2 2h6a2 2 0 0 0 2-2v-1a2 2 0 0 0-2-2h-4c0 1 .5 3 1 4-1.837-.791-3-2-3-4" style="fill:#53bcda" transform="translate(0 -1992)"/>
      <path d="M356 2350v20h-8v-20zm78 16-5 4h-65v-20h65l5 4h15l11 6-11 6zm-78 12v20h-8v-20zm78 16-5 4h-65v-20h65l5 4h15l11 6-11 6zm-78 12v20h-8v-20zm78 16-5 4h-65v-20h65l5 4h15l11 6-11 6z" style="fill:#ffe" transform="translate(0 -1992)"/>
      <path d="M276 15V0h256v15zM518 .82H290v13.36h228z" style="fill:#5abeda" transform="matrix(1 0 0 17.06667 0 306)"/>
    </g>
  </g>
</svg>
