<svg viewBox="0 0 256 256" xmlns="http://www.w3.org/2000/svg" xml:space="preserve" style="fill-rule:evenodd;clip-rule:evenodd;stroke-linejoin:round;stroke-miterlimit:2">
  <desc>Traced by Dogo314</desc>
  <g transform="translate(-276 -306)">
    <path style="fill:none" d="M276 306h256v256H276z"/>
    <clipPath id="a">
      <path d="M276 306h256v256H276z"/>
    </clipPath>
    <g clip-path="url(#a)">
      <path style="fill:#091901;" transform="translate(0 306)" d="M276 0h256v256H276z"/>
      <path d="M404 758h57l18 21H359l10.286-12H404zm-8.675-105H404c31.459 0 57 25.541 57 57v15h-65.675l12-36zM395 731h54v21h-45v-8.485l-9-9zm35.849-78H491v21h-35.306a63.3 63.3 0 0 0-24.845-21" style="fill:#679452" transform="translate(-154.667 -520.667)scale(1.33333)"/>
      <path d="m2020 656 16 48-16 48v16l12 12v20h-36v-20l12-12v-16l-16-48 16-48z" style="fill:#ffe" transform="translate(-1656 -306)"/>
      <path d="M276 15V0h256v15zM518 .82H290v13.36h228z" style="fill:#689452" transform="matrix(1 0 0 17.06667 0 306)"/>
    </g>
  </g>
</svg>
