<svg viewBox="0 0 256 256" xmlns="http://www.w3.org/2000/svg" xml:space="preserve" style="fill-rule:evenodd;clip-rule:evenodd;stroke-linejoin:round;stroke-miterlimit:2">
  <desc>Traced by Dogo314</desc>
  <g transform="translate(-276 -306)">
    <path style="fill:none" d="M276 306h256v256H276z"/>
    <clipPath id="a">
      <path d="M276 306h256v256H276z"/>
    </clipPath>
    <g clip-path="url(#a)">
      <path style="fill:#190301;" transform="translate(0 306)" d="M276 0h256v256H276z"/>
      <path d="M4818.292 207.5V228h-22.209v-.007c0-7.463 1.165-14.462 3.201-20.493zm0-3.565h-17.657c4.035-9.527 10.401-15.966 17.657-16.846zm9.436-14.758c4.713 2.762 8.765 7.978 11.637 14.758h-16.848zM4779 228c0-7.466 2-14.468 5.492-20.5h11.236c-1.956 6.138-3.061 13.11-3.061 20.5zm42.708 0v-20.5h19.008c2.036 6.031 3.201 13.03 3.201 20.493V228zm25.625 0c0-7.39-1.105-14.362-3.061-20.5h11.236A40.8 40.8 0 0 1 4861 228zm-60.522-24.065c4.86-6.689 11.692-11.854 19.638-14.639-3.826 3.571-7.073 8.608-9.453 14.639zm46.74-14.639c7.946 2.785 14.778 7.95 19.638 14.639h-10.185c-2.38-6.031-5.627-11.068-9.453-14.639" style="fill:#dd6658" transform="matrix(2.34146 0 0 2.2439 -10881.854 22.39)"/>
      <path d="m4548 410-28 8 28-76v52l28-8-28 76zm-74.251 40.065a112.6 112.6 0 0 1 15.666-10.204l3.757 7.065a105 105 0 0 0-14.054 9.097zm22.842-13.749a114 114 0 0 1 17.386-6.196l1.937 7.767a106 106 0 0 0-15.558 5.511zm25.183-7.992a116 116 0 0 1 16.297-1.975l.143 8.003c-4.934.26-9.775.85-14.501 1.748zm50.423 1.324a114 114 0 0 1 15.729 5.167l-3.516 7.208a106 106 0 0 0-14.014-4.576zm23.018 8.47a113 113 0 0 1 14.383 8.52l-5.048 6.233a105 105 0 0 0-12.843-7.561z" style="fill:#ffe" transform="translate(-4140)"/>
      <path d="M276 15V0h256v15zM518 .82H290v13.36h228z" style="fill:#e67366" transform="matrix(1 0 0 17.06667 0 306)"/>
    </g>
  </g>
</svg>
