<svg viewBox="0 0 256 256" xmlns="http://www.w3.org/2000/svg" xml:space="preserve" style="fill-rule:evenodd;clip-rule:evenodd;stroke-linejoin:round;stroke-miterlimit:2">
  <desc>Traced by Dogo314</desc>
  <g transform="translate(-276 -306)">
    <path style="fill:none" d="M276 306h256v256H276z"/>
    <clipPath id="a">
      <path d="M276 306h256v256H276z"/>
    </clipPath>
    <g clip-path="url(#a)">
      <path style="fill:#190301;" transform="translate(0 306)" d="M276 0h256v256H276z"/>
      <path d="M4801.024 195.937c-1.524 2.398-2.877 5.082-4.028 7.998h-10.185a41.2 41.2 0 0 1 16.006-13.166l-1.802 5.165zm36.159-5.168a41.2 41.2 0 0 1 16.006 13.166h-10.185c-1.151-2.916-2.504-5.6-4.028-7.998l.009-.003zm-1.423 6.389c1.343 2.02 2.553 4.294 3.605 6.777h-14.24v-16.004l.186.071 4.042 11.59zm-14.052 10.342h19.008c2.036 6.031 3.201 13.03 3.201 20.493V228h-22.209zm-3.416 0V228h-22.209v-.007c0-7.463 1.165-14.462 3.201-20.493zm-3.417-3.565h-14.24c1.052-2.483 2.262-4.757 3.605-6.777l6.407 2.434 4.042-11.59.186-.071zM4779 228c0-7.466 2-14.468 5.492-20.5h11.236c-1.956 6.138-3.061 13.11-3.061 20.5zm68.333 0c0-7.39-1.105-14.362-3.061-20.5h11.236A40.8 40.8 0 0 1 4861 228z" style="fill:#dd6658" transform="matrix(2.34146 0 0 2.2439 -10881.854 22.39)"/>
      <path d="m3996 370.433 8.343-6.422-3.848 10.817 11.477-.317L4002.5 381l9.472 6.489-11.477-.317 3.848 10.817-9.098-7.003L3992 402l-3.245-11.014-9.098 7.003 3.848-10.817-11.477.317L3981.5 381l-9.472-6.489 11.477.317-3.848-10.817 8.343 6.422V342h8zm0 37.567v8h-8v-8zm0 16v8h-8v-8zm0 16v8h-8v-8zm0 16v8h-8v-8zm0 16v8h-8v-8zm-11.528-64.622-2.736 7.517-7.518-2.736 2.737-7.517zM3979 422.413l-2.736 7.518-7.518-2.737 2.736-7.517zm-5.473 15.035-2.736 7.518-7.517-2.737 2.736-7.517zm-5.472 15.035-2.736 7.518-7.518-2.736 2.737-7.518zm38.99-47.841 2.737 7.517-7.518 2.736-2.736-7.517zm5.473 15.035 2.736 7.517-7.518 2.737-2.736-7.518zm5.472 15.035 2.736 7.517-7.517 2.737-2.736-7.518zm5.472 15.035 2.737 7.518-7.518 2.736-2.736-7.518z" style="fill:#ffe" transform="translate(-3588)"/>
      <path d="M276 15V0h256v15zM518 .82H290v13.36h228z" style="fill:#e67366" transform="matrix(1 0 0 17.06667 0 306)"/>
    </g>
  </g>
</svg>
