<svg viewBox="0 0 256 256" xmlns="http://www.w3.org/2000/svg" xml:space="preserve" style="fill-rule:evenodd;clip-rule:evenodd;stroke-linejoin:round;stroke-miterlimit:2">
  <desc>Traced by Dogo314</desc>
  <g transform="translate(-276 -306)">
    <path style="fill:none" d="M276 306h256v256H276z"/>
    <clipPath id="a">
      <path d="M276 306h256v256H276z"/>
    </clipPath>
    <g clip-path="url(#a)">
      <path style="fill:#190301;" transform="translate(0 306)" d="M276 0h256v256H276z"/>
      <path d="M4779 228c0-7.466 2-14.468 5.492-20.5h11.236c-1.956 6.138-3.061 13.11-3.061 20.5zm17.083 0v-.007c0-7.463 1.165-14.462 3.201-20.493h19.008V228zm25.625 0v-20.5h19.008c2.036 6.031 3.201 13.03 3.201 20.493V228zm25.625 0c0-7.39-1.105-14.362-3.061-20.5h11.236A40.8 40.8 0 0 1 4861 228zm-60.522-24.065c4.86-6.689 11.692-11.854 19.638-14.639-3.826 3.571-7.073 8.608-9.453 14.639zm46.74-14.639c7.946 2.785 14.778 7.95 19.638 14.639h-10.185c-2.38-6.031-5.627-11.068-9.453-14.639m-15.259-2.207v16.846h-17.657c4.035-9.527 10.401-15.966 17.657-16.846m21.073 16.846h-17.657v-16.846c7.256.88 13.622 7.319 17.657 16.846" style="fill:#dd6658" transform="matrix(2.34146 0 0 2.2439 -10881.854 22.39)"/>
      <path d="M2539.007 462.941C2534.678 458.599 2532 452.61 2532 446c0-12.015 8.849-21.981 20.38-23.728A24 24 0 0 1 2556 422h20c-4-4-10-8-17-8h-6.668c1.907-11.345 11.785-20 23.668-20h21c-2.743-2.743-6.425-5.485-10.726-6.938C2590.513 377.04 2600.441 370 2612 370s21.487 7.04 25.726 17.062c-4.301 1.453-7.983 4.195-10.726 6.938h21c11.883 0 21.761 8.655 23.668 20H2665c-7 0-13 4-17 8h20q1.847.002 3.62.272c11.531 1.747 20.38 11.713 20.38 23.728 0 6.61-2.678 12.599-7.007 16.941-11.172-10.572-24.824-18.742-40.049-23.624-10.35-3.318-21.426-5.117-32.944-5.117s-22.594 1.799-32.944 5.117c-15.225 4.882-28.877 13.052-40.049 23.624" style="fill:#ffe" transform="translate(-2208)"/>
      <path d="M276 15V0h256v15zM518 .82H290v13.36h228z" style="fill:#e67366" transform="matrix(1 0 0 17.06667 0 306)"/>
    </g>
  </g>
</svg>
