<svg viewBox="0 0 256 256" xmlns="http://www.w3.org/2000/svg" xml:space="preserve" style="fill-rule:evenodd;clip-rule:evenodd;stroke-linejoin:round;stroke-miterlimit:2">
  <desc>Traced by Dogo314</desc>
  <g transform="translate(-276 -306)">
    <path style="fill:none" d="M276 306h256v256H276z"/>
    <clipPath id="a">
      <path d="M276 306h256v256H276z"/>
    </clipPath>
    <g clip-path="url(#a)">
      <path style="fill:#190301;" transform="translate(0 306)" d="M276 0h256v256H276z"/>
      <path d="M4829.801 190.582c3.829 2.956 7.123 7.589 9.564 13.353h-17.657v-8.149c3.342-.499 6.24-2.443 8.093-5.204m-11.509 5.204v8.149h-17.657c2.441-5.764 5.735-10.397 9.564-13.353 1.853 2.761 4.751 4.705 8.093 5.204M4779 228c0-7.466 2-14.468 5.492-20.5h11.236c-1.956 6.138-3.061 13.11-3.061 20.5zm17.083 0v-.007c0-7.463 1.165-14.462 3.201-20.493h19.008V228zm25.625 0v-20.5h19.008c2.036 6.031 3.201 13.03 3.201 20.493V228zm25.625 0c0-7.39-1.105-14.362-3.061-20.5h11.236A40.8 40.8 0 0 1 4861 228zm-60.522-24.065c4.86-6.689 11.692-11.854 19.638-14.639-3.826 3.571-7.073 8.608-9.453 14.639zm46.74-14.639c7.946 2.785 14.778 7.95 19.638 14.639h-10.185c-2.38-6.031-5.627-11.068-9.453-14.639" style="fill:#dd6658" transform="matrix(2.34146 0 0 2.2439 -10881.854 22.39)"/>
      <path d="M5376 414.401c9.124 1.855 16 9.93 16 19.599 0 11.038-8.962 20-20 20s-20-8.962-20-20c0-9.669 6.876-17.744 16-19.599V342h8zM5424 430v8h-24v-8zm-18.059-35.598 5.657 5.657-16.971 16.97-5.656-5.656zm-73.539 5.657 5.657-5.657 16.97 16.971-5.656 5.656zM5320 438v-8h24v8z" style="fill:#ffe" transform="translate(-4968)"/>
      <path d="M276 15V0h256v15zM518 .82H290v13.36h228z" style="fill:#e67366" transform="matrix(1 0 0 17.06667 0 306)"/>
    </g>
  </g>
</svg>
