<svg viewBox="0 0 256 256" xmlns="http://www.w3.org/2000/svg" xml:space="preserve" style="fill-rule:evenodd;clip-rule:evenodd;stroke-linejoin:round;stroke-miterlimit:2">
  <desc>Traced by Dogo314</desc>
  <g transform="translate(-276 -306)">
    <path style="fill:none" d="M276 306h256v256H276z"/>
    <clipPath id="a">
      <path d="M276 306h256v256H276z"/>
    </clipPath>
    <g clip-path="url(#a)">
      <path style="fill:#190301;" transform="translate(0 306)" d="M276 0h256v256H276z"/>
      <path d="M4798.688 200.107a51 51 0 0 0-1.692 3.828h-10.185a41.3 41.3 0 0 1 7.779-8.104zm46.722-4.276a41.3 41.3 0 0 1 7.779 8.104h-10.185a51 51 0 0 0-1.692-3.828zm-11.182 11.669h6.488c2.036 6.031 3.201 13.03 3.201 20.493V228h-22.209v-19.023l5.552 5.793zm-15.936 1.477V228h-22.209v-.007c0-7.463 1.165-14.462 3.201-20.493h6.488l6.968 7.27zM4779 228c0-7.466 2-14.468 5.492-20.5h11.236c-1.956 6.138-3.061 13.11-3.061 20.5zm68.333 0c0-7.39-1.105-14.362-3.061-20.5h11.236A40.8 40.8 0 0 1 4861 228z" style="fill:#dd6658" transform="matrix(2.34146 0 0 2.2439 -10881.854 22.39)"/>
      <path d="m5074 460-30-30v-36h12c0-22.077 17.923-40 40-40s40 17.923 40 40h12v36l-30 30 6 6 12-12 8 8-31 31-8-8 11-11-6-6-.565.565c-7.42 7.42-19.45 7.42-26.87 0L5082 468l-6 6 11 11-8 8-31-31 8-8 12 12zm22-34c-2.208 0-4 1.792-4 4s1.792 4 4 4 4-1.792 4-4-1.792-4-4-4m-14 8c-2.208 0-4 1.792-4 4s1.792 4 4 4 4-1.792 4-4-1.792-4-4-4m14 24c-2.208 0-4 1.792-4 4s1.792 4 4 4 4-1.792 4-4-1.792-4-4-4m32-64h-64v24l12 12 20-12 20 12 12-12zm-32 48c-2.208 0-4 1.792-4 4s1.792 4 4 4 4-1.792 4-4-1.792-4-4-4m14-8c-2.208 0-4 1.792-4 4s1.792 4 4 4 4-1.792 4-4-1.792-4-4-4m-28 16c-2.208 0-4 1.792-4 4s1.792 4 4 4 4-1.792 4-4-1.792-4-4-4m28 0c-2.208 0-4 1.792-4 4s1.792 4 4 4 4-1.792 4-4-1.792-4-4-4" style="fill:#ffe" transform="translate(-4692)"/>
      <path d="M276 15V0h256v15zM518 .82H290v13.36h228z" style="fill:#e67366" transform="matrix(1 0 0 17.06667 0 306)"/>
    </g>
  </g>
</svg>
