<svg viewBox="0 0 256 256" xmlns="http://www.w3.org/2000/svg" xml:space="preserve" style="fill-rule:evenodd;clip-rule:evenodd;stroke-linejoin:round;stroke-miterlimit:2">
  <desc>Traced by Dogo314</desc>
  <g transform="translate(-276 -306)">
    <path style="fill:none" d="M276 306h256v256H276z"/>
    <clipPath id="a">
      <path d="M276 306h256v256H276z"/>
    </clipPath>
    <g clip-path="url(#a)">
      <path style="fill:#011419;" transform="translate(0 306)" d="M276 0h256v256H276z"/>
      <path d="M1490 2477h-3v30h-10l-11-25h-8v-5h-3v2h-2v-2h-2v2h-2v-2h-3v2h-2v-2h-2v2h-2v-2l-2-2h-3l-25 6-6-2v-35l6-2 25 6h29l2-4h88l4 4h29v-1h18v1h7v27h-7v1h-18v-1h-17v1h9v3h-14l-6 15h-6l-2-2v2h-10v-8h-2v3h-1.298a3.1 3.1 0 0 0-2.616 1.436l-5.461 8.581a4 4 0 0 0-.625 2.148v1.045a2.79 2.79 0 0 1-2.79 2.79h-.139a.3.3 0 0 1-.134-.032l-8.162-4.081a1.725 1.725 0 0 1-.651-2.522l9.467-13.77c.27-.393.468-.832.584-1.296L1528 2480h2v-3h-26v2h-2v-2h-2v2h-2v-2h-2v2h-2v-2h-2v2h-2zm55.882 0a1.88 1.88 0 0 0-1.882 1.882v3.048a2 2 0 0 0 .891 1.664l1.605 1.07c.329.219.715.336 1.11.336h1.566a2 2 0 0 0 1.414-.586l.828-.828a2 2 0 0 0 .586-1.414v-.344a2 2 0 0 0-.586-1.414L1550 2479h-1.197c-.492 0-.942-.278-1.162-.719l-.282-.562a1.3 1.3 0 0 0-1.162-.719z" style="fill:#53bcda" transform="translate(-1104 -1992)"/>
      <path d="M276 15V0h256v15zM518 .82H290v13.36h228z" style="fill:#5abeda" transform="matrix(1 0 0 17.06667 0 306)"/>
      <path d="m1436 2385-8-23h24l8 16h24l52-12 52 12v14l-52 12-52-12h-24l-8 16h-24z" style="fill:#ffe" transform="translate(-1104 -1992)"/>
    </g>
  </g>
</svg>
