<svg viewBox="0 0 256 256" xmlns="http://www.w3.org/2000/svg" xml:space="preserve" style="fill-rule:evenodd;clip-rule:evenodd;stroke-linejoin:round;stroke-miterlimit:2">
  <desc>Traced by Dogo314</desc>
  <g transform="translate(-28.444 589.487)scale(.98084)">
    <path style="fill:none" d="M29-601h261v261H29z"/>
    <clipPath id="a">
      <path d="M29-601h261v261H29z"/>
    </clipPath>
    <g clip-path="url(#a)">
      <path style="fill:#363426" transform="translate(-252.39 -601)scale(1.01953)" d="M276 0h256v256H276z"/>
      <path d="M2592 116h16v48h-48v-48h16v16h16zm56 0h16v48h-48v-48h16v16h16zm-28-56h16v48h-48V60h16v16h16z" style="fill:#ffe" transform="translate(-2503.516 -601)scale(1.01953)"/>
      <path d="M2580 60v48h-24.757L2528 60zm11.568 112h40.864L2612 208zm77.189-64H2644V60h52z" style="fill:#c9b269" transform="translate(-2503.516 -601)scale(1.01953)"/>
      <path d="M276 15V0h256v15zM518 .82H290v13.36h228zm-10 12.774h-32l32-1.875zM300 1.406h32l-32 1.875zm208 0v1.875l-32-1.875zM300 13.594v-1.875l32 1.875z" style="fill:#c9b269" transform="matrix(1.01953 0 0 17.4 -252.39 -601)"/>
    </g>
  </g>
</svg>
