<svg viewBox="0 0 256 256" xmlns="http://www.w3.org/2000/svg" xml:space="preserve" style="fill-rule:evenodd;clip-rule:evenodd;stroke-linejoin:round;stroke-miterlimit:2">
  <desc>Traced by Dogo314</desc>
  <g transform="translate(-28.444 589.487)scale(.98084)">
    <path style="fill:none" d="M29-601h261v261H29z"/>
    <clipPath id="a">
      <path d="M29-601h261v261H29z"/>
    </clipPath>
    <g clip-path="url(#a)">
      <path style="fill:#363426" transform="translate(-252.39 -601)scale(1.01953)" d="M276 0h256v256H276z"/>
      <path d="M648.893 108.893C656.858 100.929 667.858 96 680 96s23.142 4.929 31.107 12.893l-5.656 5.656C698.934 108.033 689.934 104 680 104s-18.934 4.033-25.451 10.549zm-11.311-11.311C648.443 86.721 663.443 80 680 80s31.557 6.721 42.418 17.582l-5.656 5.656C707.35 93.825 694.35 88 680 88s-27.35 5.825-36.762 15.238zM626.27 86.27C640.027 72.514 659.027 64 680 64s39.973 8.514 53.73 22.27l-5.656 5.656C715.765 79.617 698.765 72 680 72s-35.765 7.617-48.074 19.926zM613 145v-8c0-3.183 1.264-6.235 3.515-8.485A12 12 0 0 1 625 125h12c3.183 0 6.235 1.264 8.485 3.515A12 12 0 0 1 649 137v6a2 2 0 0 1-2 2h-6a2 2 0 0 1-2-2v-6a2 2 0 0 0-2-2h-12a2 2 0 0 0-2 2v6c18 12 26 17 26 22v8c0 3.183-1.264 6.235-3.515 8.485A12 12 0 0 1 637 185h-12a12 12 0 0 1-8.485-3.515A12 12 0 0 1 613 173v-6a2 2 0 0 1 2-2h6a2 2 0 0 1 2 2v6a2 2 0 0 0 2 2h12a2 2 0 0 0 2-2v-8c-17-11-26-16-26-20m97 0v-8c0-3.183 1.264-6.235 3.515-8.485A12 12 0 0 1 722 125h12c3.183 0 6.235 1.264 8.485 3.515A12 12 0 0 1 746 137v6a2 2 0 0 1-2 2h-6a2 2 0 0 1-2-2v-6a2 2 0 0 0-2-2h-12a2 2 0 0 0-2 2v6c18 12 26 17 26 22v8c0 3.183-1.264 6.235-3.515 8.485A12 12 0 0 1 734 185h-12a12 12 0 0 1-8.485-3.515A12 12 0 0 1 710 173v-6a2 2 0 0 1 2-2h6a2 2 0 0 1 2 2v6a2 2 0 0 0 2 2h12a2 2 0 0 0 2-2v-8c-17-11-26-16-26-20m-24-20c6.627 0 12 5.373 12 12v35c0 6.627-5.373 12-12 12h-12c-6.627 0-12-5.373-12-12v-35c0-6.627 5.373-12 12-12zm-1 9h-10a4 4 0 0 0-2.828 1.172A4 4 0 0 0 671 138v33c0 1.061.421 2.078 1.172 2.828A4 4 0 0 0 675 175h10a4 4 0 0 0 2.828-1.172A4 4 0 0 0 689 171v-33a4 4 0 0 0-1.172-2.828A4 4 0 0 0 685 134" style="fill:#ffe" transform="translate(-533.781 -601)scale(1.01953)"/>
      <path d="M276 256V0h256v256zM518 14H290v228h228zm-10 10v32l-32-32zm0 208h-32l32-32zm-208 0v-32l32 32zm0-208h32l-32 32z" style="fill:#c9b269" transform="translate(-252.39 -601)scale(1.01953)"/>
    </g>
  </g>
</svg>
