<svg viewBox="0 0 256 256" xmlns="http://www.w3.org/2000/svg" xml:space="preserve" style="fill-rule:evenodd;clip-rule:evenodd;stroke-linejoin:round;stroke-miterlimit:2">
  <desc>Traced by Dogo314</desc>
  <g transform="translate(-276 -306)">
    <path style="fill:none" d="M276 306h256v256H276z"/>
    <clipPath id="a">
      <path d="M276 306h256v256H276z"/>
    </clipPath>
    <g clip-path="url(#a)">
      <path style="fill:#011419;" transform="translate(0 306)" d="M276 0h256v256H276z"/>
      <path d="m3442 2517-12-3v-4l-7-6-9-18h-25v-3h-3v-2h-34v-21h34v-4h12v-3l2-2h72l2-5h44l2 5v5h6l2 2v24l-2 2h-3v1h1v3h-17.034a7 7 0 0 0-6.607 4.688L3495 2508l-8-3 1-3-8-2-1 6h-7l-15-5-15 13zm-4-27-2 13h3l11-10-7-3zm31.822 6.657a3 3 0 0 0-1.874-.657h-.489a3 3 0 0 0-2.941 2.412l-.041.201a3 3 0 0 0 1.76 3.346l2.596 1.112a3 3 0 0 0 3.582-.957l.422-.563a2 2 0 0 0-.351-2.762z" style="fill:#53bcda" transform="translate(-3036 -1992)"/>
      <path d="M2949 2398h-128v-32h128c8.831 0 16 7.169 16 16s-7.169 16-16 16m0-24c-4.415 0-8 3.585-8 8s3.585 8 8 8 8-3.585 8-8-3.585-8-8-8m-128-40 24 24h-24zm0 96v-24h24z" style="fill:#ffe" transform="translate(-2485 -1992)"/>
      <path d="M276 15V0h256v15zM518 .82H290v13.36h228z" style="fill:#5abeda" transform="matrix(1 0 0 17.06667 0 306)"/>
    </g>
  </g>
</svg>
