<svg viewBox="0 0 256 256" xmlns="http://www.w3.org/2000/svg" xml:space="preserve" style="fill-rule:evenodd;clip-rule:evenodd;stroke-linejoin:round;stroke-miterlimit:2">
  <desc>Traced by Dogo314</desc>
  <g transform="translate(-276 -306)">
    <path style="fill:none" d="M276 306h256v256H276z"/>
    <clipPath id="a">
      <path d="M276 306h256v256H276z"/>
    </clipPath>
    <g clip-path="url(#a)">
      <path style="fill:#011419;" transform="translate(0 306)" d="M276 0h256v256H276z"/>
      <path d="M276 15V0h256v15zM518 .82H290v13.36h228z" style="fill:#5abeda" transform="matrix(1 0 0 17.06667 0 306)"/>
      <path d="m974 2371-3 3.142h-47V2358h47l3 3h13l9 5-9 5zm0 24-3 3.142h-47V2382h47l3 3h13l9 5-9 5zm0 23.858-3 3.142h-47v-16.142h47l3 3h13l9 5-9 5z" style="fill:#ffe" transform="translate(-552 -1992)"/>
      <path d="M1011 2484h-2v2h-3l-3-3-4 4h-15v14h-22v-14h-17l-.215.537a7.1 7.1 0 0 1-6.592 4.463H931c-.796 0-1.559.316-2.121.879A3 3 0 0 0 928 2495v1.488c0 .835-.677 1.512-1.512 1.512h-.002c-.357 0-.695.165-.915.446a1.17 1.17 0 0 0-.211.995l.277 1.105a1.17 1.17 0 0 1-1.136 1.454h-.001a1.08 1.08 0 0 0-1.026 1.423l.986 2.956a3.5 3.5 0 0 1-.408 3.043l-.175.263a1.9 1.9 0 0 1-2.33.692l-10.411-4.462a1.998 1.998 0 0 1-.913-2.891l10.624-17.162A2 2 0 0 0 920 2483h-9l-4-3h-14l-6.243 6.243a6 6 0 0 1-4.242 1.757h-18.272a3 3 0 0 0-2.122.879l-.533.533a3 3 0 0 1-1.394.79l-2.253.563a3 3 0 0 1-1.842-.125l-2.213-.886a3 3 0 0 1-1.886-2.785V2461c0-.796.316-1.559.879-2.121A3 3 0 0 1 855 2458h56l10-2h2v-2h2v2h2v-2h2v2h2v-2h2v2h2v-2h2v2h2v-2h2v2h2v-2h2v2h2v-2h2v2h2v-2h2v2h2v-2h2v2h2v-2h2l2 2h26a2 2 0 0 1 2 2v1c0 1.061.421 2.078 1.172 2.828A4 4 0 0 0 995 2463h56l1 4 2 1h9v3h-7v2h4v4h-9l-1 3h-3l-2 2v4h-2v-2h-2v2h-2v-2h-2v2h-2v-2h-2v2h-2v-2h-2v2h-2v-2h-2v2h-2v-2h-2v2h-2v-2h-2v2h-2v-2h-2v2h-2zm-77-1h-1a2 2 0 0 0-2 2v2a2 2 0 0 0 2 2h6a4 4 0 0 0 2.828-1.172A4 4 0 0 0 943 2485a2 2 0 0 0-2-2h-5c0 2 0 3 1 5h-1c-1-1-2-2-2-5" style="fill:#53bcda" transform="translate(-552 -1992)"/>
    </g>
  </g>
</svg>
