<svg viewBox="0 0 256 256" xmlns="http://www.w3.org/2000/svg" xml:space="preserve" style="fill-rule:evenodd;clip-rule:evenodd;stroke-linejoin:round;stroke-miterlimit:2">
  <desc>Traced by Dogo314</desc>
  <g transform="translate(-276 -306)">
    <path style="fill:none" d="M276 306h256v256H276z"/>
    <clipPath id="a">
      <path d="M276 306h256v256H276z"/>
    </clipPath>
    <g clip-path="url(#a)">
      <path style="fill:#011419;" transform="translate(0 306)" d="M276 0h256v256H276z"/>
      <path d="M980 2735h2l.707-.707a1 1 0 0 1 .707-.293H984a.997.997 0 0 1 1 1v.586a1 1 0 0 1-.293.707L984 2737v1h4l2 2v3h1l1-1h15l1-1h4v1h1v-1.764a2 2 0 0 1 4 0V2744h32v-1h6l1 1v3l-1 1h-6v-1h-32v3l-1 1h-2l-1-1v-1h-4v4h-2l-1-1h-11l.707.707a1 1 0 0 1 .293.707v.586a.997.997 0 0 1-1 1h-.586a1 1 0 0 1-.707-.293L992 2753h-1l-5 4-1 2h1l2 2 2-2h1l1 1v1l-2 2 1 1-1 3-4 3v1l-2 2h-1l-2-1-3 2h-2v2l-31 19h-3v1l-2 2-10 1-3-5 3-4v-1l-1-2 1-2v-4l2-1v-2l1-1v-4l-11-17v-2h-9l-2-2h-17l-4 8-3 1h-23c-3 0-5-2-5-5h-2a1 1 0 0 1-1-1v-14a1 1 0 0 1 1-1h4.056c.621 0 1.233.145 1.789.422l.5.251c.431.215.905.327 1.387.327h2.324c.621 0 1.233-.145 1.789-.422l.5-.251a3.1 3.1 0 0 1 1.387-.327h6.324c.621 0 1.233.145 1.789.422l.5.251c.431.215.906.327 1.387.327H883l3-3h25v-2.586a1 1 0 1 1 2 0V2738h3v-1l3-3h12v3h5l3-3h4v1h2v-1h.985v1H947v-1h.985v1H949v-1h.985v1H951v-1h.985v1H953v-1h.985v1H955v-1h.985v1H957v-1h.985v1H959v-1h.985v1H961v-1h.985v1H963v-1h.985v1H965v-1h.985v1H967v-1h.985v1H969v-1h.985v1H971v-1h.985v1H973v-1h7zm-50 17 2.092 2.092c.581.581.908 1.37.908 2.192v.8a3.1 3.1 0 0 0 1.714 2.773l.572.286a3.1 3.1 0 0 1 1.714 2.773v.493c0 1.019.405 1.996 1.125 2.716l.703.703a4 4 0 0 1 1.172 2.829V2772l2 1 17-11-6-10h-9v2h-5v-2zm12 29 25-15h3l3-1 1-1-1-1h-4l-12 7v1l-5 3h-1l-8 5zm-57-34h-18a4 4 0 0 0-2.828 1.172A4 4 0 0 0 863 2751v4c0 1.061.421 2.078 1.172 2.828A4 4 0 0 0 867 2759h14l5-5v-4h-14a2 2 0 0 0-2 2h-1v-.002a3 3 0 0 1 2.998-2.998H886z" style="fill:#53bcda" transform="translate(-552 -2268)"/>
      <path d="m941.569 2687.173-18.155-20.25V2642H929c0-14.902 12.098-27 27-27s27 12.098 27 27h5.586v24.923l-18.62 20.769 3.724 4.154 6.517-7.269 5.586 6.231-18.621 20.769-5.586-6.231 7.448-8.308-3.724-4.153-1.41 1.573c-4.363 4.866-11.437 4.866-15.8 0l-1.876-2.093-4.19 4.673 7.449 8.308-5.586 6.231-18.621-20.769 5.586-6.231 6.517 7.269zM976.483 2642h-40.966v19.731l7.449 6.231 13.034-9.347 13.034 9.347 7.449-6.231zM956 2663.808c-1.542 0-2.793 1.396-2.793 3.115s1.251 3.115 2.793 3.115 2.793-1.395 2.793-3.115c0-1.719-1.251-3.115-2.793-3.115m0 11.423c-1.542 0-2.793 1.396-2.793 3.115s1.251 3.116 2.793 3.116 2.793-1.396 2.793-3.116c0-1.719-1.251-3.115-2.793-3.115m8.379-5.193c-1.541 0-2.793 1.396-2.793 3.116 0 1.719 1.252 3.115 2.793 3.115s2.793-1.396 2.793-3.115-1.251-3.116-2.793-3.116m-16.758 0c-1.542 0-2.793 1.396-2.793 3.116 0 1.719 1.251 3.115 2.793 3.115 1.541 0 2.793-1.396 2.793-3.115s-1.252-3.116-2.793-3.116m0 11.424c-1.542 0-2.793 1.395-2.793 3.115 0 1.719 1.251 3.115 2.793 3.115 1.541 0 2.793-1.396 2.793-3.115s-1.252-3.115-2.793-3.115m16.758 0c-1.541 0-2.793 1.395-2.793 3.115 0 1.719 1.252 3.115 2.793 3.115s2.793-1.396 2.793-3.115-1.251-3.115-2.793-3.115m-8.379 5.192c-1.542 0-2.793 1.396-2.793 3.115s1.251 3.116 2.793 3.116 2.793-1.396 2.793-3.116c0-1.719-1.251-3.115-2.793-3.115" style="fill:#ffe" transform="matrix(1.07407 0 0 .96296 -622.815 -2171.148)"/>
      <path d="M276 15V0h256v15zM518 .82H290v13.36h228z" style="fill:#5abeda" transform="matrix(1 0 0 17.06667 0 306)"/>
    </g>
  </g>
</svg>
