<svg viewBox="0 0 256 256" xmlns="http://www.w3.org/2000/svg" xml:space="preserve" style="fill-rule:evenodd;clip-rule:evenodd;stroke-linejoin:round;stroke-miterlimit:2">
  <desc>Traced by Dogo314</desc>
  <g transform="translate(-276 -306)">
    <path style="fill:none" d="M276 306h256v256H276z"/>
    <clipPath id="a">
      <path d="M276 306h256v256H276z"/>
    </clipPath>
    <g clip-path="url(#a)">
      <path style="fill:#011419;" transform="translate(0 306)" d="M276 0h256v256H276z"/>
      <path d="M3722.562 2459.562 3724 2461v-2h5v2h2v-2h28v9h-28v-2h-3v8h28v-3h8v3h5a3 3 0 0 0 3-3h8l12 2 5-1 3 1 3-1 5 1h5s4 3 4 13-4 13-4 13h-5l-5 1-3-1-3 1-5-1-12 2h-33l-6-2h-49v-2h-9v2h-9l-.364.364L3678 2503h9v2h-14l-2.812-2.188L3667 2506h-34v-3l-3-3h-9l-6-4 5-16 15.45-3.862c2.82-4.117 5.681-7.241 8.55-10.138.704-.71-1.826-1-1.826-3a6.83 6.83 0 0 1 6.826-6.826 6.83 6.83 0 0 1 6.826 6.826c0 1.467-.16 4.218-.579 7.03L3661 2468q-3-12 0-24h22l3 2 15 1v2l3 3v3h3v11h-1l-3 3v1h7v-3h-1v-3h7l1 4h2v-7.171a3.001 3.001 0 1 1 3.562-1.267" style="fill:#53bcda" transform="translate(-3312 -1992)"/>
      <path d="M3656 2395.6v-25.2l6.6-8.4h59.4v42h-59.4zm21.686-18.9h35.828c1.561 0 2.829-1.411 2.829-3.15s-1.268-3.15-2.829-3.15h-35.828c-1.561 0-2.829 1.411-2.829 3.15s1.268 3.15 2.829 3.15m0 12.6c-1.561 0-2.829 1.411-2.829 3.15s1.268 3.15 2.829 3.15h35.828c1.561 0 2.829-1.411 2.829-3.15s-1.268-3.15-2.829-3.15zm49.971 15.75v-44.1h40.543c4.714 0 8.486 2.1 8.486 4.2v35.7c0 2.1-3.772 4.2-8.486 4.2zM3768.2 2383c0-5.216-3.802-9.45-8.486-9.45-4.683 0-8.485 4.234-8.485 9.45s3.802 9.45 8.485 9.45c4.684 0 8.486-4.234 8.486-9.45m-54.686-34.65 5.657 7.35h-41.485l5.657-7.35zm0 69.3h-30.171l-5.657-7.35h41.485z" style="fill:#ffe" transform="matrix(1.0606 0 0 .95238 -3537.576 -1879.524)"/>
      <path d="M276 15V0h256v15zM518 .82H290v13.36h228z" style="fill:#5abeda" transform="matrix(1 0 0 17.06667 0 306)"/>
    </g>
  </g>
</svg>
