<svg viewBox="0 0 256 256" xmlns="http://www.w3.org/2000/svg" xml:space="preserve" style="fill-rule:evenodd;clip-rule:evenodd;stroke-linejoin:round;stroke-miterlimit:2">
  <desc>Traced by Dogo314</desc>
  <g transform="translate(-276 -306)">
    <path style="fill:none" d="M276 306h256v256H276z"/>
    <clipPath id="a">
      <path d="M276 306h256v256H276z"/>
    </clipPath>
    <g clip-path="url(#a)">
      <path style="fill:#011419;" transform="translate(0 306)" d="M276 0h256v256H276z"/>
      <path d="M2575.238 2482.001 2575 2481v-4h13v-1h5v1h6v-2h-13v-1h-29v1h-4v-2l-4-3h-2l-4 3h-12l-17-3h-6l-4 3h-7c-2 0-3-4-3-10s1-10 3-10h7l4 3h6l17-3h12l4 3h2l4-3v-2h4v1h29v-1h25v1h28v-1h4v2l14 2h3l3-3h5v4l3 2h11l4-2h22l4 2c4 0 9 1 18 4v2c-9 3-14 4-18 4l-4 2h-22l-4-2h-11l-3 2v4h-5l-3-3h-3l-14 2v2h3a2.5 2.5 0 1 1 4 2.999V2490a2 2 0 1 1-4 0v-12h-7a1 1 0 0 0-1 1v3c0 .796-.316 1.559-.879 2.121a3 3 0 0 1-2.121.879h-10l-6 12-5-3 6-11v-4h-6l-2 4h-8a2 2 0 0 0-2-2h-18v21h-4l-.483-2.027a1 1 0 1 0-.463-1.946l-.492-2.066a1 1 0 0 0-.463-1.943l-.492-2.07a1.001 1.001 0 0 0-.462-1.938l-.495-2.078a1 1 0 0 0-.364-1.932q-.048 0-.094.004l-.498-2.091a1 1 0 0 0-.408-1.913zM2630 2478h-1l1 2-.379 1.515a2.002 2.002 0 0 0 1.941 2.485H2634a3 3 0 0 0 3-3v-2a.997.997 0 0 0-1-1h-4c0 2 0 4 1 5-1 0-2-2-2-3l-1-1z" style="fill:#53bcda" transform="translate(-2208 -1992)"/>
      <path d="M2545 2348c18.213 0 33 14.787 33 33s-14.787 33-33 33-33-14.787-33-33 14.787-33 33-33m0 4c-16.006 0-29 12.994-29 29s12.994 29 29 29 29-12.994 29-29-12.994-29-29-29m0 7c12.142 0 22 9.858 22 22s-9.858 22-22 22-22-9.858-22-22 9.858-22 22-22m0 4c-9.934 0-18 8.066-18 18s8.066 18 18 18 18-8.066 18-18-8.066-18-18-18m0 6c6.623 0 12 5.377 12 12s-5.377 12-12 12-12-5.377-12-12 5.377-12 12-12m56 14-5-16h9l4 11h4l-4-11h17l6 8h5l38-8 38 8v16l-38 8-38-8h-5l-6 8h-17l4-11h-4l-4 11h-9z" style="fill:#ffe" transform="translate(-2208 -1992)"/>
      <path d="M276 15V0h256v15zM518 .82H290v13.36h228z" style="fill:#5abeda" transform="matrix(1 0 0 17.06667 0 306)"/>
    </g>
  </g>
</svg>
