<svg viewBox="0 0 256 256" xmlns="http://www.w3.org/2000/svg" xml:space="preserve" style="fill-rule:evenodd;clip-rule:evenodd;stroke-linejoin:round;stroke-miterlimit:2">
  <desc>Traced by Dogo314</desc>
  <g transform="translate(-276 -306)">
    <path style="fill:none" d="M276 306h256v256H276z"/>
    <clipPath id="a">
      <path d="M276 306h256v256H276z"/>
    </clipPath>
    <g clip-path="url(#a)">
      <path style="fill:#011419;" transform="translate(0 306)" d="M276 0h256v256H276z"/>
      <path d="M690 2486h-32v8h-4v7h-15l-3-3v-7h-1v-2h-1.172a2 2 0 0 0-1.414.586l-.535.535a3 3 0 0 1-2.122.879h-2.049c-.466 0-.925-.108-1.341-.317l-1.788-.893a2 2 0 0 0-2.558.679l-4.776 7.163a1 1 0 0 0-.138.797l.467 1.866a1 1 0 0 1-1.258 1.2l-6.998-2.1a1 1 0 0 1-.535-1.527l7.058-10.195a2 2 0 0 0-.535-2.802L611 2482h-12l-3.522 5.635a6 6 0 0 1-4.239 2.759l-10.579 1.512a2 2 0 0 0-1.131.565l-1.943 1.943a2 2 0 0 1-1.414.586h-.344a2 2 0 0 1-1.414-.586l-.828-.828a2 2 0 0 1-.586-1.414v-2.465c0-.453.18-.887.5-1.207l.5-.5v-8l-.766-.766a.8.8 0 0 1-.234-.565v-2.708c0-.607.276-1.182.751-1.561l3.701-2.962a2 2 0 0 1 1.25-.438H615l5-4h7v-1h1v-3h-8v-4h9v-2l1-1h1l1 1v2h2l1-1h6l1 1h3l4-1h9v6h-9l-4-1h-3l-1 1v2h1v1h37l5 5h20l2 2h55l2.071-2.071H787l2 2.071v4l-2 2h-24l-2-2h-56v8h-3l-1-1v-2h-5.038l-.962 2v19h1l2-2h1v1l-3 3h1l2-2h1v1l-3 3h-8l-3-3v-1l-1-1v-1h1l2 2h2zm-110-6v7l15.862-5.047a1 1 0 0 0-.303-1.953zm50.382 9a1 1 0 0 0 .894-.553l.402-.802c.192-.385.117-.85-.188-1.155l-1.197-1.197a1 1 0 0 0-.707-.293h-2.172a1 1 0 0 0-.707.293l-1 1a1 1 0 0 0 0 1.414l1 1a1 1 0 0 0 .707.293zm2.618-26v3h2v-3z" style="fill:#53bcda" transform="translate(-276 -1992)"/>
      <path d="M644.22 2394H636v-8h8.22c1.847-16.676 15.104-29.933 31.78-31.78V2342h8v12.22c16.676 1.847 29.933 15.104 31.78 31.78H724v8h-8.22c-1.847 16.676-15.104 29.933-31.78 31.78v8.22h-8v-8.22c-16.676-1.847-29.933-15.104-31.78-31.78m31.78-31.716c-12.255 1.756-21.96 11.461-23.716 23.716H676zM707.716 2386c-1.756-12.255-11.461-21.96-23.716-23.716V2386zM684 2417.716c12.255-1.756 21.96-11.461 23.716-23.716H684zM652.284 2394c1.756 12.255 11.461 21.96 23.716 23.716V2394z" style="fill:#ffe" transform="translate(-276 -1992)"/>
      <path d="M276 15V0h256v15zM518 .82H290v13.36h228z" style="fill:#5abeda" transform="matrix(1 0 0 17.06667 0 306)"/>
    </g>
  </g>
</svg>
