<svg viewBox="0 0 256 256" xmlns="http://www.w3.org/2000/svg" xml:space="preserve" style="fill-rule:evenodd;clip-rule:evenodd;stroke-linejoin:round;stroke-miterlimit:2">
  <desc>Traced by Dogo314</desc>
  <g transform="translate(-276 -306)">
    <path style="fill:none" d="M276 306h256v256H276z"/>
    <clipPath id="a">
      <path d="M276 306h256v256H276z"/>
    </clipPath>
    <g clip-path="url(#a)">
      <path style="fill:#091901;" transform="translate(0 306)" d="M276 0h256v256H276z"/>
      <path d="M377 665v-12h27c31.459 0 57 25.541 57 57v15h-54.301a15 15 0 0 0-5.702-9c3.644-2.738 6.003-7.096 6.003-12s-2.359-9.262-6.003-12c3.644-2.738 6.003-7.096 6.003-12 0-8.279-6.721-15-15-15zm29.699 66H449v21h-60v-9h3c7.251 0 13.308-5.157 14.699-12m24.15-78H491v21h-35.306a63.3 63.3 0 0 0-24.845-21M461 758l18 21H359l18-21z" style="fill:#679452" transform="translate(-154.667 -520.667)scale(1.33333)"/>
      <path d="M1196 704h-34l23-24h11c6.623 0 12 5.377 12 12s-5.377 12-12 12m-45 0h-15v-24h38zm45 32h-34l23-24h11c6.623 0 12 5.377 12 12s-5.377 12-12 12m-45 0h-15v-24h38zm45 32h-34l23-24h11c6.623 0 12 5.377 12 12s-5.377 12-12 12m-45 0h-15v-24h38z" style="fill:#ffe" transform="translate(-828 -306)"/>
      <path d="M276 15V0h256v15zM518 .82H290v13.36h228z" style="fill:#689452" transform="matrix(1 0 0 17.06667 0 306)"/>
    </g>
  </g>
</svg>
