<svg viewBox="0 0 256 256" xmlns="http://www.w3.org/2000/svg" xml:space="preserve" style="fill-rule:evenodd;clip-rule:evenodd;stroke-linejoin:round;stroke-miterlimit:2">
  <desc>Traced by Dogo314</desc>
  <g transform="translate(-276 -306)">
    <path style="fill:none" d="M276 306h256v256H276z"/>
    <clipPath id="a">
      <path d="M276 306h256v256H276z"/>
    </clipPath>
    <g clip-path="url(#a)">
      <path style="fill:#011419;" transform="translate(0 306)" d="M276 0h256v256H276z"/>
      <path d="M1249 2721v2h2v-2h2v2h2v-2h2v2h2v-2h2v2h2v-2h2v2h2v-2h2v2h2v-2h2v2h2v-2h2v2h2v-2h2v2h2v-2h2v2h1v-2h4v4h9l3-3h1v3h2l4 4v5h11l2 2h8l1-1h2v2l2 2v6l-2 2v2h-2l-1-1h-7v2l-4 3h-39v2l2 8 2 2v5l-3 3h-6l-2-2v-5l-2-9-1-1h-2l-1 1v14l1 2v2l-2 2h-3l-1-1h-6l-1-1h-2l-4 4h-22l-2-2v-5l-4 2h-15l-10 17v4l-1 1h-2l-12-8 15-23-4-5v-3h-1v-5h1v-6h-4v13h-3v2h-4v-2h-1l-22 18h-16l-2 2h-7l-3-3v-36l3-3h7l2 2h44l2 2h3l3-2h5l1-1h7l1-1h11v-4l-1-1h-1l-2-2h3v-3l1-1h24l2-2v-3zm-104 40.357 13 10.475 14.986-12.261.014-1.571h-28zm5 11.643-6-6h-2v6zm77-6v3l3 3h18l1-1h10v-2h-29l-1-1v-2zm-15-5h-3l-3 2.916V2770l2 2h12l2-2v-5l-3-3h-3c-1 4-2 5 0 9h-1c-2-2-2-4-2-7zm60-35h-22a2 2 0 1 0 0 4h22a2 2 0 1 0 0-4m22 0h-10a2 2 0 1 0 0 4h10a2 2 0 1 0 0-4" style="fill:#53bcda" transform="translate(-828 -2268)"/>
      <path d="M4038 2410h-19v-40h19c11.038 0 20 8.962 20 20s-8.962 20-20 20m-92 0v4h-16v-48h16v4h25v40zm47-14h-16l24-30-4 18h16l-24 30z" style="fill:#ffe" transform="translate(-3590 -1992)"/>
      <path d="M276 15V0h256v15zM518 .82H290v13.36h228z" style="fill:#5abeda" transform="matrix(1 0 0 17.06667 0 306)"/>
    </g>
  </g>
</svg>
