<svg viewBox="0 0 256 256" xmlns="http://www.w3.org/2000/svg" xml:space="preserve" style="fill-rule:evenodd;clip-rule:evenodd;stroke-linejoin:round;stroke-miterlimit:2">
  <desc>Traced by Dogo314</desc>
  <g transform="translate(-276 -306)">
    <path style="fill:none" d="M276 306h256v256H276z"/>
    <clipPath id="a">
      <path d="M276 306h256v256H276z"/>
    </clipPath>
    <g clip-path="url(#a)">
      <path style="fill:#011419;" transform="translate(0 306)" d="M276 0h256v256H276z"/>
      <path d="M388 1569.204V1541l17 17h19v24h32v-24h19l17-17v101l-16 16h-68v-84.448zM472 1550h-64l-20-20v-16h104v16zm-24 8v16h-16v-16z" style="fill:#53bcda" transform="translate(0 -1164)"/>
      <path d="m3390 1570 46 10v75l-46 27-46-27v-75zm0 27.167c12.145 0 19.554 7.279 19.554 7.279L3405 1609h15v-15l-4.554 4.554s-9.591-9.721-25.446-9.721-25.446 9.721-25.446 9.721L3360 1594v15h15l-4.554-4.554s7.409-7.279 19.554-7.279m0 34.833 6-23-21 29h15l-6 23 21-29z" style="fill:#ffe" transform="translate(-3036 -1164)"/>
      <path d="M276 15V0h256v15zM518 .82H290v13.36h228z" style="fill:#5abeda" transform="matrix(1 0 0 17.06667 0 306)"/>
    </g>
  </g>
</svg>
