<svg viewBox="0 0 256 256" xmlns="http://www.w3.org/2000/svg" xml:space="preserve" style="fill-rule:evenodd;clip-rule:evenodd;stroke-linejoin:round;stroke-miterlimit:2">
  <desc>Traced by Dogo314</desc>
  <g transform="translate(-28.444 589.487)scale(.98084)">
    <path style="fill:none" d="M29-601h261v261H29z"/>
    <clipPath id="a">
      <path d="M29-601h261v261H29z"/>
    </clipPath>
    <g clip-path="url(#a)">
      <path style="fill:#363426" transform="translate(-252.39 -601)scale(1.01953)" d="M276 0h256v256H276z"/>
      <path d="M5074.42 184H5019l-15-27 68.014-28.806A56 56 0 0 0 5065.75 154a55.96 55.96 0 0 0 8.67 30m21.774-79.986L5125 36l27 15v33.865l-9.554 16.724A56.1 56.1 0 0 0 5122 97.75c-9.3 0-18.075 2.262-25.806 6.264m74.671 77.851L5181 192l7 28-28-7-10.135-10.135a56.6 56.6 0 0 0 21-21M5080 112h-64l-12-12 48-16 16-48 12 12zm69.75 42c0 15.316-12.434 27.75-27.75 27.75s-27.75-12.434-27.75-27.75 12.434-27.75 27.75-27.75c2.055 0 4.058.224 5.986.648l-9.77 17.102h29.675a27.7 27.7 0 0 1 1.859 10" style="fill:#c9b269" transform="translate(-5036.031 -601)scale(1.01953)"/>
      <path d="M5135.097 132.482a24.54 24.54 0 0 0-12.097-3.167c-13.624 0-24.685 11.061-24.685 24.685s11.061 24.685 24.685 24.685 24.685-11.061 24.685-24.685h8.63c0 18.387-14.928 33.315-33.315 33.315s-33.315-14.928-33.315-33.315 14.928-33.315 33.315-33.315a33.16 33.16 0 0 1 16.362 4.293l.016.011 4.336-7.59 13.81 24.172h-27.619z" style="fill:#ffe" transform="translate(-7378.422 -671.383)scale(1.47656)"/>
      <path d="M276 15V0h256v15zM518 .82H290v13.36h228z" style="fill:#c9b269" transform="matrix(1.01953 0 0 17.4 -252.39 -601)"/>
    </g>
  </g>
</svg>
