<svg viewBox="0 0 256 256" xmlns="http://www.w3.org/2000/svg" xml:space="preserve" style="fill-rule:evenodd;clip-rule:evenodd;stroke-linejoin:round;stroke-miterlimit:2">
  <desc>Traced by Dogo314</desc>
  <g transform="translate(-276 -306)">
    <path style="fill:none" d="M276 306h256v256H276z"/>
    <clipPath id="a">
      <path d="M276 306h256v256H276z"/>
    </clipPath>
    <g clip-path="url(#a)">
      <path style="fill:#190301;" transform="translate(0 306)" d="M276 0h256v256H276z"/>
      <path d="M683.5 483.25c-9.359 0-17.581-4.909-22.229-12.289 3.658-.618 7.54-3.922 10.079-6.461H653.5c-8.279 0-15-6.721-15-15q0-.509.033-1.008c3.716-.528 7.694-3.906 10.279-6.492H631c-8.279 0-15-6.721-15-15s6.721-15 15-15h17.812c-2.585-2.586-6.563-5.964-10.279-6.492a15 15 0 0 1-.033-1.008c0-8.279 6.721-15 15-15h17.85c-2.539-2.539-6.421-5.843-10.079-6.461 4.648-7.38 12.87-12.289 22.229-12.289s17.581 4.909 22.229 12.289c-3.658.618-7.54 3.922-10.079 6.461h17.85c8.279 0 15 6.721 15 15q0 .509-.033 1.008c-3.716.528-7.694 3.906-10.279 6.492H736c8.279 0 15 6.721 15 15s-6.721 15-15 15h-17.812c2.585 2.586 6.563 5.964 10.279 6.492q.033.5.033 1.008c0 8.279-6.721 15-15 15h-17.85c2.539 2.539 6.421 5.843 10.079 6.461-4.648 7.38-12.87 12.289-22.229 12.289" style="fill:#ffe" transform="translate(-317.067 -17.467)scale(1.06667)"/>
      <path d="M342.736 418H324l-12-12 48-16 16-48 12 12v25.174a36.2 36.2 0 0 0-6.48 7.672l-1.99 3.159C366.501 390.255 356 400.911 356 414a23.9 23.9 0 0 0-13.264 4m77.957-46.942L433 342l27 15v39.117a23.9 23.9 0 0 0-15.53-6.112l-1.99-3.159c-4.884-7.757-12.649-13.519-21.787-15.788m44.17 102.805L489 498l7 28-28-7-27.289-27.289a36 36 0 0 0 1.769-2.557l1.99-3.159c8.735-.167 16.334-5.012 20.393-12.132M382.069 490H327l-15-27 24.858-10.528C341.242 458.259 348.187 462 356 462c0 13.089 10.501 23.745 23.53 23.995l1.99 3.159q.268.428.549.846" style="fill:#dd6658"/>
      <path d="M276 15V0h256v15zM518 .82H290v13.36h228z" style="fill:#e67366" transform="matrix(1 0 0 17.06667 0 306)"/>
    </g>
  </g>
</svg>
