<svg viewBox="0 0 256 256" xmlns="http://www.w3.org/2000/svg" xml:space="preserve" style="fill-rule:evenodd;clip-rule:evenodd;stroke-linejoin:round;stroke-miterlimit:2">
  <desc>Traced by Dogo314</desc>
  <g transform="translate(-276 -306)">
    <path style="fill:none" d="M276 306h256v256H276z"/>
    <clipPath id="a">
      <path d="M276 306h256v256H276z"/>
    </clipPath>
    <g clip-path="url(#a)">
      <path style="fill:#011419;" transform="translate(0 306)" d="M276 0h256v256H276z"/>
      <path d="M688 1930h-16l-12-12v-24h-24v-28l8-8h16l8-8h24l8 8h16l8 8v28h-24v24zm-16-20c-2.208 0-4 1.792-4 4s1.792 4 4 4 4-1.792 4-4-1.792-4-4-4m20-44h-24v20h24zm-20 32c-2.208 0-4 1.792-4 4s1.792 4 4 4 4-1.792 4-4-1.792-4-4-4m16 0c-2.208 0-4 1.792-4 4s1.792 4 4 4 4-1.792 4-4-1.792-4-4-4m0 12c-2.208 0-4 1.792-4 4s1.792 4 4 4 4-1.792 4-4-1.792-4-4-4m-36-8v26l12 12v14l12 12h-40l12-12v-8l-12-12v-32zm56 0h16v32l-12 12v8l12 12h-40l12-12v-14l12-12z" style="fill:#53bcda" transform="translate(-276 -1440)"/>
      <path d="M897 1802h-26l16-16h10c4.415 0 8 3.585 8 8s-3.585 8-8 8m-32 0h-11v-16h27zm182 0h-26l16-16h10c4.415 0 8 3.585 8 8s-3.585 8-8 8m-32 0h-11v-16h27zm-118 24h-26l16-16h10c4.415 0 8 3.585 8 8s-3.585 8-8 8m-32 0h-11v-16h27zm182 0h-26l16-16h10c4.415 0 8 3.585 8 8s-3.585 8-8 8m-32 0h-11v-16h27z" style="fill:#ffe" transform="translate(-550 -1440)"/>
      <path d="M276 15V0h256v15zM518 .82H290v13.36h228z" style="fill:#5abeda" transform="matrix(1 0 0 17.06667 0 306)"/>
    </g>
  </g>
</svg>
