<svg viewBox="0 0 256 256" xmlns="http://www.w3.org/2000/svg" xml:space="preserve" style="fill-rule:evenodd;clip-rule:evenodd;stroke-linejoin:round;stroke-miterlimit:2">
  <desc>Traced by Dogo314</desc>
  <g transform="translate(-276 -306)">
    <path style="fill:none" d="M276 306h256v256H276z"/>
    <clipPath id="a">
      <path d="M276 306h256v256H276z"/>
    </clipPath>
    <g clip-path="url(#a)">
      <path style="fill:#011419;" transform="translate(0 306)" d="M276 0h256v256H276z"/>
      <path d="M1512 2728h6.4l-4.808-6.153a3.002 3.002 0 0 1 1.48-4.714 3 3 0 0 1 5.595-1.633l7.217 12.5h3.599l-4.808-6.153a3.002 3.002 0 0 1 1.48-4.714 3.001 3.001 0 0 1 5.595-1.633l7.217 12.5h3.599l-4.808-6.153a3.002 3.002 0 0 1 1.48-4.714 3 3 0 0 1 5.595-1.633l7.217 12.5h2.212l-3.831-4.903a3 3 0 0 1 4.234-4.193l-.233-.404a3.001 3.001 0 0 1 5.196-3l2.958 5.123a3.001 3.001 0 0 1 5.055-1.494l2.659 2.659-1.898-3.288a3.001 3.001 0 0 1 5.196-3l7.217 12.5H1591c2 2 2 3 2 5l12 4v5l-12 3c0 3 0 6-1 8 0 2 0 3-1 3h-5l-1 1h-16v4h-6v11c0 5.172-2 8-2 8s1 1 1 3-2 3-5 3-5-1-5-3 1-3 1-3v-9c0-5.271 3-10 3-10v-3h-6v-2q-4.5 0-6 3l-14.823 30.634a1 1 0 0 0-.048.752l.555 1.665a1 1 0 0 1-.633 1.265l-1.769.59a1 1 0 0 1-.569.019l-22.188-5.788a1 1 0 0 1-.696-.651l-.694-2.08a1 1 0 0 1 .065-.784l7.641-14.432a2.74 2.74 0 0 0-.903-3.564L1509 2766h-19l-7-7h-6l-5 4h-4c-4 0-5 1-5 5v15l-3 6h-4c-1-13-8-28-22-28v-2h-12l-9-9v-20c0-3 1-5 2-5h5l3 3h10v-3h13v3h9v-3h13v3h9v-3h13v3h9v-3h13zm58.027 0-2.796-2.796 1.614 2.796zm-37.795 37H1527c-1 2-1 5 0 7h-4s-1.812 1.208-2.618 1.748a3 3 0 0 0-.693.641c-2.764 3.499-4.084 6.354-5.449 11.65a1 1 0 0 0 .705 1.219l9.251 2.523a1 1 0 0 0 1.165-.532l9.576-19.951a3 3 0 0 0-2.705-4.298" style="fill:#53bcda" transform="translate(-1104 -2268)"/>
      <path d="M276 15V0h256v15zM518 .82H290v13.36h228z" style="fill:#5abeda" transform="matrix(1 0 0 17.06667 0 306)"/>
      <path d="M1477.431 2629.377c25.528-6.857 51.211-13.377 56.569-13.377 16.006 0 29 12.994 29 29s-12.994 29-29 29c-4.584 0-24.048-4.773-45.563-10.446L1498 2659l-31-8 7-5-31-3 42-7zM1534 2623c-12.142 0-22 9.858-22 22s9.858 22 22 22 22-9.858 22-22-9.858-22-22-22m7 8c2.76 0 5 2.24 5 5s-2.24 5-5 5-5-2.24-5-5 2.24-5 5-5m-2 20a3.001 3.001 0 0 1 0 6 3.001 3.001 0 0 1 0-6m-13-7a3.001 3.001 0 0 1 0 6 3.001 3.001 0 0 1 0-6" style="fill:#ffe" transform="translate(-1104 -2268)"/>
    </g>
  </g>
</svg>
