<svg viewBox="0 0 256 256" xmlns="http://www.w3.org/2000/svg" xml:space="preserve" style="fill-rule:evenodd;clip-rule:evenodd;stroke-linejoin:round;stroke-miterlimit:2">
  <desc>Traced by Dogo314</desc>
  <g transform="translate(-276 -306)">
    <path style="fill:none" d="M276 306h256v256H276z"/>
    <clipPath id="a">
      <path d="M276 306h256v256H276z"/>
    </clipPath>
    <g clip-path="url(#a)">
      <path style="fill:#011419;" transform="translate(0 306)" d="M276 0h256v256H276z"/>
      <path d="M2121.162 2761H2115v2h-7v2h-1l-1-2h-6c-1 4-1 4 0 7h-1c-1-2-1-4-1-7h-1l-2 2v5l3 3v1h-2l-1.414-1.414a2 2 0 0 0-1.414-.586h-.04c-.702 0-1.353.369-1.715.971l-10.276 17.127a2 2 0 0 1-2.915.571l-4.728-3.545a2 2 0 0 1-.475-2.693l11.254-17.256a3 3 0 0 0-2.241-4.626L2076 2762v-1h-23v1h-8v-1h-10v1h-28v-1h-10v1h-8v-1h-27c-1 1-1 1-3 1-3 0-5-5-5-15s2-15 5-15c2 0 2 0 3 1h5v-1h6v1h26v-1h7v1h30v-1h7v1h47v-1h8v1h23v-1h8v1h25c0-1 1-2 2-2h5c3 0 5 7 5 16s-2 16-5 16h-5c-1 0-2-1-2-2h-22.838l.27 5h-1.111l.054 1h1.111l1.44 26.634h-2L2131 2795h-6l-.074-1.366h-2l-1.44-26.634h1.112l-.054-1h-1.112z" style="fill:#53bcda" transform="translate(-1656 -2268)"/>
      <path d="m1985 2690-18-18v-19l15-15v-24l21 21v23l7-17 9 27-22 22v-11l7-7-10-10v-12l-18.953 18.953 10.019 10.019zm62-31-5-16h9l4 11h4l-4-11h17l6 8h5l38-8 38 8v16l-38 8-38-8h-5l-6 8h-17l4-11h-4l-4 11h-9z" style="fill:#ffe" transform="translate(-1656 -2268)"/>
      <path d="M276 15V0h256v15zM518 .82H290v13.36h228z" style="fill:#5abeda" transform="matrix(1 0 0 17.06667 0 306)"/>
    </g>
  </g>
</svg>
