<svg viewBox="0 0 256 256" xmlns="http://www.w3.org/2000/svg" xml:space="preserve" style="fill-rule:evenodd;clip-rule:evenodd;stroke-linejoin:round;stroke-miterlimit:2">
  <desc>Traced by Dogo314</desc>
  <g transform="translate(-276 -306)">
    <path style="fill:none" d="M276 306h256v256H276z"/>
    <clipPath id="a">
      <path d="M276 306h256v256H276z"/>
    </clipPath>
    <g clip-path="url(#a)">
      <path style="fill:#091901" transform="translate(0 306)" d="M276 0h256v256H276z"/>
      <path d="M404 758h57l18 21H359l10.286-12H404zm-8.675-105H404c31.459 0 57 25.541 57 57v15h-65.675l12-36zM395 731h54v21h-45v-8.485l-9-9zm35.849-78H491v21h-35.306a63.3 63.3 0 0 0-24.845-21" style="fill:#679452" transform="translate(-154.667 -520.667)scale(1.33333)"/>
      <path d="M2002.758 671.726 2008 656h12l16 48-16 48v16l12 12v20h-36v-20l12-12v-16l-1.282-3.846 16.638-16.638-7.742-7.742 7.58-7.579v-27.066h-5.407c-1.955-7.582-7.531-13.966-15.029-17.403m-24.661 57.08L1963 713.71v-18.581h4.645c0-11.109 10.06-20.129 22.452-20.129 12.391 0 22.451 9.02 22.451 20.129h4.646v18.581l-15.484 15.484 3.096 3.096 5.42-5.419 4.645 4.645L1999.387 747l-4.645-4.645 6.193-6.194-3.096-3.096-1.173 1.172a9.29 9.29 0 0 1-13.138 0l-1.56-1.56-3.484 3.484 6.193 6.194-4.645 4.645-15.484-15.484 4.646-4.645 5.419 5.419zm29.032-33.677h-34.064v14.71l6.193 4.645 10.839-6.968 10.838 6.968 6.194-4.645zm-17.032 24.774a2.323 2.323 0 1 0 0 4.643 2.323 2.323 0 0 0 0-4.643m0 8.516a2.324 2.324 0 0 0 0 4.646 2.323 2.323 0 0 0 0-4.646m6.968-3.871a2.324 2.324 0 0 0 0 4.646 2.324 2.324 0 0 0 0-4.646m0-8.516a2.323 2.323 0 1 0 2.322 2.323 2.324 2.324 0 0 0-2.322-2.323m-13.936 0a2.323 2.323 0 1 0 0 4.643 2.323 2.323 0 0 0 0-4.643m0 8.516a2.324 2.324 0 0 0 0 4.646 2.324 2.324 0 0 0 0-4.646m6.968-13.161a2.323 2.323 0 1 0 0 4.643 2.323 2.323 0 0 0 0-4.643" style="fill:#ffe" transform="translate(-1656 -306)"/>
      <path d="M276 15V0h256v15zM518 .82H290v13.36h228z" style="fill:#689452" transform="matrix(1 0 0 17.06667 0 306)"/>
    </g>
  </g>
</svg>
