<svg viewBox="0 0 256 256" xmlns="http://www.w3.org/2000/svg" xml:space="preserve" style="fill-rule:evenodd;clip-rule:evenodd;stroke-linejoin:round;stroke-miterlimit:2">
  <desc>Traced by Dogo314</desc>
  <g transform="translate(-276 -306)">
    <path style="fill:none" d="M276 306h256v256H276z"/>
    <clipPath id="a">
      <path d="M276 306h256v256H276z"/>
    </clipPath>
    <g clip-path="url(#a)">
      <path style="fill:#091901;" transform="translate(0 306)" d="M276 0h256v256H276z"/>
      <path d="M377 683v-30h27c31.459 0 57 25.541 57 57v15h-84v-25.5h8.583l-7.13 7.13 11.667 11.667 7.13-7.13v10.083h16.5v-10.083l7.13 7.13 11.667-11.667-7.13-7.13H435.5V683h-10.083l7.13-7.13-11.667-11.667-7.13 7.13V661.25h-16.5v10.083l-7.13-7.13-11.667 11.667 7.13 7.13zm53.849-30H491v21h-35.306a63.3 63.3 0 0 0-24.845-21M449 731v21h-60v-21zm12 27 18 21H359l18-21z" style="fill:#679452" transform="translate(-154.667 -520.667)scale(1.33333)"/>
      <path d="M1478.379 710H1406v-6h72.379c1.333-5.173 6.034-9 11.621-9 6.623 0 12 5.377 12 12s-5.377 12-12 12c-5.587 0-10.288-3.827-11.621-9M1493 727v12h-6v-12zm13.263-7.979 8.486 8.485-4.243 4.243-8.485-8.486zM1510 704h12v6h-12zm-7.979-13.263 8.485-8.486 4.243 4.243-8.486 8.485zM1487 687v-12h6v12zm-9.021 36.263-8.485 8.486-4.243-4.243 8.486-8.485zm-4.242-28.284-8.486-8.485 4.243-4.243 8.485 8.486z" style="fill:#ffe" transform="translate(-1104 -306)"/>
      <path d="M276 15V0h256v15zM518 .82H290v13.36h228z" style="fill:#689452" transform="matrix(1 0 0 17.06667 0 306)"/>
    </g>
  </g>
</svg>
