<svg viewBox="0 0 256 256" xmlns="http://www.w3.org/2000/svg" xml:space="preserve" style="fill-rule:evenodd;clip-rule:evenodd;stroke-linejoin:round;stroke-miterlimit:2">
  <desc>Traced by Dogo314</desc>
  <g transform="translate(-276 -306)">
    <path style="fill:none" d="M276 306h256v256H276z"/>
    <clipPath id="a">
      <path d="M276 306h256v256H276z"/>
    </clipPath>
    <g clip-path="url(#a)">
      <path style="fill:#011419;" transform="translate(0 306)" d="M276 0h256v256H276z"/>
      <path d="M2357 2738.583V2743h57.554c.652-.644 1.457-1 2.446-1s1.794.356 2.446 1h15.108c.652-.644 1.457-1 2.446-1s1.794.356 2.446 1h11.108c.652-.644 1.457-1 2.446-1 2.564 0 3.895 2.393 4.521 6H2459v4h-1.068c.047.963.068 1.968.068 3q0 1.021-.029 2H2459v4h-1.328c-.548 4.158-1.878 7-4.672 7-1.419 0-2.461-.733-3.214-2h-9.572c-.753 1.267-1.795 2-3.214 2s-2.461-.733-3.214-2h-13.572c-.753 1.267-1.795 2-3.214 2s-2.461-.733-3.214-2H2357v1h-3v2l-2 1v4l-2 2h-6v4h-7v1h-3v-1h-22v1h-3v-1h-16v1h-3v-1h-3v-12h-9l-3-2-9-1h-46l-4-10 1-4 57-16h67l4 4h1l4-4h.1a5.002 5.002 0 0 1 4.9-6c2.76 0 5 2.24 5 5a5 5 0 0 1-3 4.583m91.941 7.417h-7.882c.185.612.337 1.282.462 2h6.958c.125-.718.277-1.388.462-2m-27.62 17h11.358a22 22 0 0 1-.351-2h-10.656a22 22 0 0 1-.351 2m26.708-6q-.03-.979-.029-2c0-1.032.021-2.037.068-3h-6.136c.047.963.068 1.968.068 3q0 1.021-.029 2zm-35.961-5H2357v5h55.029q-.03-.979-.029-2c0-1.032.021-2.037.068-3M2270 2748v-2h2l3-3h2l2-2h8v-1h-13l-6 6v2zm162.068 4h-10.136c.047.963.068 1.968.068 3q0 1.021-.029 2h10.058q-.03-.979-.029-2c0-1.032.021-2.037.068-3m16.611 11a22 22 0 0 1-.351-2h-6.656a22 22 0 0 1-.351 2zm-35.738-17H2357v2h55.479c.125-.718.277-1.388.462-2m-.613 15H2357v2h55.679a22 22 0 0 1-.351-2M2268 2763v-6h-6l-10 3 2 2h9zm164.941-17h-11.882c.185.612.337 1.282.462 2h10.958c.125-.718.277-1.388.462-2M2225 2761h13l24-7h4v-1h4v-3h-2v1h-6l-1-1h-13v2l-4 2-3-2-.414.414a2 2 0 0 1-1.414.586h-3.554a1 1 0 0 0-.894.553l-.448.894a1 1 0 0 1-.894.553h-3.764a1 1 0 0 0-.894.553l-.448.894a1 1 0 0 1-.894.553h-2.101a.998.998 0 0 0-.97 1.243z" style="fill:#53bcda" transform="translate(-1932 -2268)"/>
      <path d="M356 2350v20h-8v-20zm78 16-5 4h-65v-20h65l5 4h15l11 6-11 6zm-78 12v20h-8v-20zm78 16-5 4h-65v-20h65l5 4h15l11 6-11 6zm-78 12v20h-8v-20zm78 16-5 4h-65v-20h65l5 4h15l11 6-11 6z" style="fill:#ffe" transform="translate(0 -1992)"/>
      <path d="M276 15V0h256v15zM518 .82H290v13.36h228z" style="fill:#5abeda" transform="matrix(1 0 0 17.06667 0 306)"/>
    </g>
  </g>
</svg>
