<svg viewBox="0 0 256 256" xmlns="http://www.w3.org/2000/svg" xml:space="preserve" style="fill-rule:evenodd;clip-rule:evenodd;stroke-linejoin:round;stroke-miterlimit:2">
  <desc>Traced by Dogo314</desc>
  <g transform="translate(-28.444 589.487)scale(.98084)">
    <path style="fill:none" d="M29-601h261v261H29z"/>
    <clipPath id="a">
      <path d="M29-601h261v261H29z"/>
    </clipPath>
    <g clip-path="url(#a)">
      <path style="fill:#363426" transform="translate(-252.39 -601)scale(1.01953)" d="M276 0h256v256H276z"/>
      <path d="M1232 102c14.35 0 26 11.65 26 26s-11.65 26-26 26-26-11.65-26-26 11.65-26 26-26m-42 20v12h-62v-12zm84 12v-12h62v12zm-7.092-31.055-8.485-8.486 21.213-21.213 8.485 8.486zm-8.485 61.331 8.485-8.485 21.213 21.213-8.485 8.485zm-61.331-8.485 8.485 8.485-21.213 21.213-8.485-8.485zm8.485-61.332-8.485 8.486-21.213-21.213 8.485-8.486zM1238 86h-12V36h12zm-12 84h12v50h-12z" style="fill:#ffe" transform="translate(-1096.563 -601)scale(1.01953)"/>
      <path d="M276 256V0h256v256zM518 14H290v228h228zM300 24h32l-32 32zm0 208v-32l32 32zm208 0h-32l32-32zm0-208v32l-32-32z" style="fill:#c9b269" transform="translate(-252.39 -601)scale(1.01953)"/>
    </g>
  </g>
</svg>
