<svg viewBox="0 0 256 256" xmlns="http://www.w3.org/2000/svg" xml:space="preserve" style="fill-rule:evenodd;clip-rule:evenodd;stroke-linejoin:round;stroke-miterlimit:2">
  <desc>Traced by Dogo314</desc>
  <g transform="translate(-276 -306)">
    <path style="fill:none" d="M276 306h256v256H276z"/>
    <clipPath id="a">
      <path d="M276 306h256v256H276z"/>
    </clipPath>
    <g clip-path="url(#a)">
      <path style="fill:#190301;" transform="translate(0 306)" d="M276 0h256v256H276z"/>
      <path d="M4818.292 219.132V228h-22.209v-.007c0-7.463 1.165-14.462 3.201-20.493h13.883v4.279zm-5.125-15.197h-12.532c2.345-5.537 5.478-10.031 9.115-12.997v6.452l3.417 3.565zm17.083-12.997c3.637 2.966 6.77 7.46 9.115 12.997h-12.532v-2.98l3.417-3.565zm-3.417 16.562h13.883c2.036 6.031 3.201 13.03 3.201 20.493V228h-22.209v-8.868l5.125-7.353zM4779 228c0-7.466 2-14.468 5.492-20.5h11.236c-1.956 6.138-3.061 13.11-3.061 20.5zm68.333 0c0-7.39-1.105-14.362-3.061-20.5h11.236A40.8 40.8 0 0 1 4861 228zm-60.522-24.065c4.86-6.689 11.692-11.854 19.638-14.639-3.826 3.571-7.073 8.608-9.453 14.639zm46.74-14.639c7.946 2.785 14.778 7.95 19.638 14.639h-10.185c-2.38-6.031-5.627-11.068-9.453-14.639" style="fill:#dd6658" transform="matrix(2.34146 0 0 2.2439 -10881.854 22.39)"/>
      <path d="m4257 455.893-5-5.435V426h20v24.458l-5 5.435v16.984l-5 7.474-5-7.474z" style="fill:#ffe" transform="matrix(1.6 0 0 1.47193 -6415.2 -201.04)"/>
      <path d="M4251.833 342h8.334c0 7.977 5.381 11.744 10.419 15.733 6.964 5.513 13.581 11.241 13.581 22.267s-6.617 16.754-13.581 22.267c-5.038 3.989-10.419 7.756-10.419 15.733h-8.334c0-11.026 6.617-16.754 13.581-22.267 5.038-3.989 10.419-7.756 10.419-15.733s-5.381-11.744-10.419-15.733c-6.964-5.513-13.581-11.241-13.581-22.267" style="fill:#ffe" transform="translate(-3864)"/>
      <path d="M4251.833 342h8.334c0 7.977 5.381 11.744 10.419 15.733 6.964 5.513 13.581 11.241 13.581 22.267s-6.617 16.754-13.581 22.267c-5.038 3.989-10.419 7.756-10.419 15.733h-8.334c0-11.026 6.617-16.754 13.581-22.267 5.038-3.989 10.419-7.756 10.419-15.733s-5.381-11.744-10.419-15.733c-6.964-5.513-13.581-11.241-13.581-22.267" style="fill:#ffe" transform="matrix(-1 0 0 1 4672 0)"/>
      <path d="M276 15V0h256v15zM518 .82H290v13.36h228z" style="fill:#e67366" transform="matrix(1 0 0 17.06667 0 306)"/>
    </g>
  </g>
</svg>
