<svg viewBox="0 0 256 256" xmlns="http://www.w3.org/2000/svg" xml:space="preserve" style="fill-rule:evenodd;clip-rule:evenodd;stroke-linejoin:round;stroke-miterlimit:2">
  <desc>Traced by Dogo314</desc>
  <g transform="translate(-276 -306)">
    <path style="fill:none" d="M276 306h256v256H276z"/>
    <clipPath id="a">
      <path d="M276 306h256v256H276z"/>
    </clipPath>
    <g clip-path="url(#a)">
      <path style="fill:#011419;" transform="translate(0 306)" d="M276 0h256v256H276z"/>
      <path d="M276 15V0h256v15zM518 .82H290v13.36h228z" style="fill:#5abeda" transform="matrix(1 0 0 17.06667 0 306)"/>
      <path d="M1771 96h-17c-7.727 0-14-6.273-14-14 0-7.586 6.047-13.771 13.579-13.994C1755.3 62.223 1760.661 58 1767 58c1.194 0 2.353.15 3.46.431 1.579-6 7.046-10.431 13.54-10.431s11.961 4.431 13.54 10.431A14 14 0 0 1 1801 58c6.339 0 11.7 4.223 13.421 10.006C1821.953 68.229 1828 74.414 1828 82c0 7.727-6.273 14-14 14h-17s-9 12-9 39c0 31 4 41 4 41l24-24v36l20-20v20h20l-20 20h-104l-20-20h20v-20l20 20v-36l24 24s4-10 4-41c0-27-9-39-9-39" style="fill:#ffe" transform="translate(-1002.778 359.111)scale(.76389)"/>
      <path d="M1785 118c21.525 0 39 2.689 39 6s-17.475 6-39 6-39-2.689-39-6 17.475-6 39-6m0 4c-14.902 0-27 .896-27 2s12.098 2 27 2 27-.896 27-2-12.098-2-27-2" style="fill:#ffe" transform="matrix(1.01852 0 0 1.52778 -1458.056 264.389)"/>
      <path d="M388 1566.979V1541l17 17h19v24h32v-24h19l17-17v101l-16 16h-68.278v-25.869l-14.796 14.795-.482-.482v-15.021c2.632-.706 4.871-1.488 6.634-2.317 6.443-3.027 8.644-7.675 8.644-11.273 0-3.558-2.106-8.092-8.301-11.109-2.52-1.227-6.068-2.359-10.389-3.304 7.318-2.536 12.579-9.493 12.579-17.67 0-8.305-5.428-15.352-12.927-17.786a20 20 0 0 0-.684-.985M472 1550h-64l-20-20v-16h104v16zm-24 8v16h-16v-16z" style="fill:#53bcda" transform="translate(0 -1164)"/>
    </g>
  </g>
</svg>
