<svg viewBox="0 0 256 256" xmlns="http://www.w3.org/2000/svg" xml:space="preserve" style="fill-rule:evenodd;clip-rule:evenodd;stroke-linejoin:round;stroke-miterlimit:2">
  <desc>Traced by Dogo314</desc>
  <g transform="translate(-276 -306)">
    <path style="fill:none" d="M276 306h256v256H276z"/>
    <clipPath id="a">
      <path d="M276 306h256v256H276z"/>
    </clipPath>
    <g clip-path="url(#a)">
      <path style="fill:#011419;" transform="translate(0 306)" d="M276 0h256v256H276z"/>
      <path d="M3166 2452h18l1-1h83v7h-4v4h4v13a2 2 0 0 1-2 2h-68l-3-2h-16l-3 2h-37v1.967c0 .67-.218 1.323-.62 1.86l-1.18 1.573a4 4 0 0 1-3.2 1.6h-12l-12.103 13.965a3 3 0 0 1-2.267 1.035h-.63c-3 0-16-7-18-12h-14l-4-2h-9a2 2 0 0 1-2-2v-29a2 2 0 0 1 2-2h66v-2h2v2h2v-2h2v2h2v-2h2v2h2v-2h2v2h2v-2h2v2h2v-2h2v2h2v-2h2v2h2v-2h2v2h2v-2h2v2h2v-2h2zm-62 24a2 2 0 0 0-2 2v7a2 2 0 0 0 2 2h1.172a2 2 0 0 0 1.414-.586l5.828-5.828a2 2 0 0 0 .586-1.414V2478a2 2 0 0 0-2-2zm23 4a.997.997 0 0 0 1 1h4a.997.997 0 0 0 1-1v-2a.997.997 0 0 0-1-1h-4a.997.997 0 0 0-1 1z" style="fill:#53bcda" transform="translate(-2760 -1992)"/>
      <path d="m4293.25 432.794-2.5 2.717h-27.5v-21.74h27.5l2.5 2.718h20l7.5 8.152-7.5 8.153z" style="fill:#ffe" transform="matrix(1.6 0 0 1.47193 -6421.2 -231.04)"/>
      <path d="M4186 440.167v-8.334c7.977 0 11.744-5.381 15.733-10.419 5.513-6.964 11.241-13.581 22.267-13.581s16.754 6.617 22.267 13.581c3.989 5.038 7.756 10.419 15.733 10.419v8.334c-11.026 0-16.754-6.617-22.267-13.581-3.989-5.038-7.756-10.419-15.733-10.419s-11.744 5.381-15.733 10.419c-5.513 6.964-11.241 13.581-22.267 13.581" style="fill:#ffe" transform="translate(-3870 -30)"/>
      <path d="M4350 407.833v8.334c-7.977 0-11.744 5.381-15.733 10.419-5.513 6.964-11.241 13.581-22.267 13.581s-16.754-6.617-22.267-13.581c-3.989-5.038-7.756-10.419-15.733-10.419v-8.334c11.026 0 16.754 6.617 22.267 13.581 3.989 5.038 7.756 10.419 15.733 10.419s11.744-5.381 15.733-10.419c5.513-6.964 11.241-13.581 22.267-13.581" style="fill:#ffe" transform="matrix(-1 0 0 1 4666 -30)"/>
      <path d="M276 15V0h256v15zM518 .82H290v13.36h228z" style="fill:#5abeda" transform="matrix(1 0 0 17.06667 0 306)"/>
    </g>
  </g>
</svg>
