<svg viewBox="0 0 256 256" xmlns="http://www.w3.org/2000/svg" xml:space="preserve" style="fill-rule:evenodd;clip-rule:evenodd;stroke-linejoin:round;stroke-miterlimit:2">
  <desc>Traced by Dogo314</desc>
  <g transform="translate(-276 -306)">
    <path style="fill:none" d="M276 306h256v256H276z"/>
    <clipPath id="a">
      <path d="M276 306h256v256H276z"/>
    </clipPath>
    <g clip-path="url(#a)">
      <path style="fill:#091901;" transform="translate(0 306)" d="M276 0h256v256H276z"/>
      <path d="M377 689v-36h27c31.459 0 57 25.541 57 57v15h-57v-9.515l21-21V668h-26.485l-21 21zm26.485 42H449v21h-60v-6.515zm27.364-78H491v21h-35.306a63.3 63.3 0 0 0-24.845-21M461 758l18 21H359l18-21z" style="fill:#679452" transform="translate(-154.667 -520.667)scale(1.33333)"/>
      <path d="M956 684v24l-28 28v20l-28 28v-44h-44l28-28h20l28-28zm-76 82 12-12v14l-12 12zm-6-6h-14l12-12h14z" style="fill:#ffe" transform="translate(-552 -306)"/>
      <path d="M276 15V0h256v15zM518 .82H290v13.36h228z" style="fill:#689452" transform="matrix(1 0 0 17.06667 0 306)"/>
    </g>
  </g>
</svg>
