<svg viewBox="0 0 256 256" xmlns="http://www.w3.org/2000/svg" xml:space="preserve" style="fill-rule:evenodd;clip-rule:evenodd;stroke-linejoin:round;stroke-miterlimit:2">
  <desc>Traced by Dogo314</desc>
  <g transform="translate(-28.444 589.487)scale(.98084)">
    <path style="fill:none" d="M29-601h261v261H29z"/>
    <clipPath id="a">
      <path d="M29-601h261v261H29z"/>
    </clipPath>
    <g clip-path="url(#a)">
      <path style="fill:#363426" transform="translate(-252.39 -601)scale(1.01953)" d="M276 0h256v256H276z"/>
      <path d="M4262 212.235h-26.563v-1.059H4262V211h17v.176h26.562v1.059H4279V214h-17zm64.812-1.059v1.059h-12.749v-1.059zm-112.625 0h12.75v1.059h-12.75z" style="fill:#ffe" transform="rotate(45 14528.091 -84.712)scale(.95956 46.21875)"/>
      <path d="M276 15V0h256v15zM518 .82H290v13.36h228zm-10 12.774h-32l32-1.875zM300 1.406h32l-32 1.875zm208 0v1.875l-32-1.875zM300 13.594v-1.875l32 1.875z" style="fill:#c9b269" transform="matrix(1.01953 0 0 17.4 -252.39 -601)"/>
    </g>
  </g>
</svg>
