<svg viewBox="0 0 256 256" xmlns="http://www.w3.org/2000/svg" xml:space="preserve" style="fill-rule:evenodd;clip-rule:evenodd;stroke-linejoin:round;stroke-miterlimit:2">
  <desc>Traced by Dogo314</desc>
  <g transform="translate(-276 -306)">
    <path style="fill:none" d="M276 306h256v256H276z"/>
    <clipPath id="a">
      <path d="M276 306h256v256H276z"/>
    </clipPath>
    <g clip-path="url(#a)">
      <path style="fill:#011419;" transform="translate(0 306)" d="M276 0h256v256H276z"/>
      <path d="M276 15V0h256v15zM518 .82H290v13.36h228z" style="fill:#5abeda" transform="matrix(1 0 0 17.06667 0 306)"/>
      <path d="M1228 1614.869V1652h-37l-18.234-69.766 3.933-3.933c8.611 20.389 28.175 35.042 51.301 36.568M1183 1652h-17l-10.977-42 13.477-13.477zm53-37.131c23.126-1.526 42.69-16.179 51.301-36.568l3.933 3.933L1273 1652h-37zm45 37.131 14.5-55.477 13.477 13.477-10.977 42z" style="fill:#53bcda" transform="translate(-828 -1164)"/>
      <path d="M1232 1530c0 13.807 11.193 25 25 25-13.807 0-25 11.193-25 25 0-13.807-11.193-25-25-25 13.807 0 25-11.193 25-25" style="fill:#ffe" transform="translate(-828 -1164)"/>
      <path d="M1232 1517.5c20.697 0 37.5 16.803 37.5 37.5s-16.803 37.5-37.5 37.5-37.5-16.803-37.5-37.5 16.803-37.5 37.5-37.5m0 5.882c-17.45 0-31.618 14.168-31.618 31.618s14.168 31.618 31.618 31.618 31.618-14.168 31.618-31.618-14.168-31.618-31.618-31.618m0 6.618c13.798 0 25 11.202 25 25s-11.202 25-25 25-25-11.202-25-25 11.202-25 25-25m0 6.618c-10.145 0-18.382 8.237-18.382 18.382s8.237 18.382 18.382 18.382 18.382-8.237 18.382-18.382-8.237-18.382-18.382-18.382m16.176 95.588-8.088 20.588h-16.176l-8.088-20.588z" style="fill:#ffe" transform="translate(-1271.52 -1723.8)scale(1.36)"/>
    </g>
  </g>
</svg>
